<svg width="12" height="801" viewBox="0 0 12 801" fill="none" xmlns="http://www.w3.org/2000/svg">
<path d="M2.53867 0.90039C5.03025 0.90039 7.5332 0.90039 10.2383 0.900391C10.186 15.4552 10.0271 29.7175 10.1815 44.0122C7.47641 43.5506 4.95757 43.1442 2.52277 43.5083C1.69375 29.3241 2.75444 15.0163 2.53867 0.90039ZM2.82257 31.2324C3.90597 31.4275 4.99618 31.4145 6.13863 31.3105C6.13863 29.4444 6.13863 27.7539 6.13863 25.9008C4.98255 26.0081 3.9037 25.9235 2.82257 26.512C2.82257 28.0074 2.82257 29.4541 2.82257 31.2324ZM2.98838 14.4702C2.98838 15.9851 2.98838 17.4188 2.98838 18.9923C4.05588 18.9176 5.09385 18.8493 6.20677 18.7713C6.15908 17.1783 6.30898 15.6893 6.08412 14.1678C5.05978 13.885 4.1013 14.1646 2.98838 14.4702ZM9.57507 13.1698C9.57507 11.4402 9.57507 9.84721 9.57507 8.2217C8.59842 7.73405 7.68083 7.89335 6.64286 7.99738C6.72008 9.77244 6.79503 11.4565 6.87225 13.225C7.79439 13.199 8.63703 13.5079 9.57507 13.1698ZM5.93876 7.04158C6.19542 5.13973 6.01371 3.46544 5.89788 1.7489C4.88262 1.69689 3.99682 1.51483 3.08604 1.87244C3.26774 3.63775 3.02472 5.3673 3.32907 7.03832C4.21032 7.04158 5.02798 7.04158 5.93876 7.04158ZM9.5092 25.0522C9.5092 23.2967 9.5092 21.6582 9.5092 19.9936C8.61432 19.7531 7.81029 19.6425 6.97673 19.7368C6.97673 21.6192 6.97673 23.3585 6.97673 25.1173C7.8489 25.2733 8.63022 25.3676 9.5092 25.0522ZM9.38201 32.3638C8.52574 32.3118 7.73079 31.9834 6.979 32.3313C6.979 34.2396 6.979 36.044 6.979 37.8483C7.82392 37.8483 8.56208 37.8483 9.38201 37.8483C9.38201 35.9757 9.38201 34.2299 9.38201 32.3638ZM6.18179 38.8626C5.11429 39.1194 4.1331 38.9471 3.14282 39.4413C3.0338 40.4231 3.0338 41.3626 3.1292 42.3412C4.06269 42.7508 4.97574 42.8484 5.9274 42.598C6.16816 41.4146 6.2522 40.267 6.18179 38.8626Z" fill="#F6F5E9"/>
<path d="M0.635049 43.8654C0.246661 42.2626 0.466972 40.8452 0.405648 39.4993C0.0876699 32.4218 -0.191694 25.3248 0.326156 18.2506C0.700916 13.1237 0.86899 8.00336 0.755427 2.85699C0.741799 2.19703 0.698646 1.54033 0.65322 0.5C1.33914 1.40378 1.23694 2.22954 1.24829 2.97402C1.33006 8.28295 1.12792 13.5756 0.875804 18.8715C0.503315 26.661 0.675931 34.4472 1.15063 42.2204C1.1847 42.8056 1.19151 42.8056 0.635049 43.8654Z" fill="#F6F5E9"/>
<path d="M11.5147 1.72656C12.0734 16.0798 12.1665 30.2998 11.7009 44.6401C11.0241 44.2987 11.174 43.5445 11.1876 42.8975C11.2989 38.138 11.4715 33.3818 11.5215 28.6223C11.5896 22.078 11.3761 15.5369 11.2239 8.99587C11.1785 7.0485 11.1899 5.10113 11.199 3.15377C11.2035 2.71488 11.074 2.19796 11.5147 1.72656Z" fill="#F6F5E9"/>
<path d="M2.53867 73.2256C5.03025 73.2256 7.5332 73.2256 10.2383 73.2256C10.186 87.7804 10.0271 102.043 10.1815 116.337C7.47641 115.876 4.95757 115.469 2.52277 115.833C1.69375 101.649 2.75444 87.3415 2.53867 73.2256ZM2.82257 103.558C3.90597 103.753 4.99618 103.74 6.13863 103.636C6.13863 101.77 6.13863 100.079 6.13863 98.226C4.98255 98.3332 3.9037 98.2487 2.82257 98.8372C2.82257 100.333 2.82257 101.779 2.82257 103.558ZM2.98838 86.7954C2.98838 88.3103 2.98838 89.744 2.98838 91.3175C4.05588 91.2428 5.09385 91.1745 6.20677 91.0965C6.15908 89.5035 6.30898 88.0145 6.08412 86.493C5.05978 86.2102 4.1013 86.4898 2.98838 86.7954ZM9.57507 85.4949C9.57507 83.7654 9.57507 82.1724 9.57507 80.5469C8.59842 80.0592 7.68083 80.2185 6.64286 80.3226C6.72008 82.0976 6.79503 83.7817 6.87225 85.5502C7.79439 85.5242 8.63703 85.8331 9.57507 85.4949ZM5.93876 79.3668C6.19542 77.4649 6.01371 75.7906 5.89788 74.0741C4.88262 74.0221 3.99682 73.84 3.08604 74.1976C3.26774 75.9629 3.02472 77.6925 3.32907 79.3635C4.21032 79.3668 5.02798 79.3668 5.93876 79.3668ZM9.5092 97.3774C9.5092 95.6219 9.5092 93.9834 9.5092 92.3188C8.61432 92.0783 7.81029 91.9677 6.97673 92.062C6.97673 93.9444 6.97673 95.6837 6.97673 97.4425C7.8489 97.5985 8.63022 97.6928 9.5092 97.3774ZM9.38201 104.689C8.52574 104.637 7.73079 104.309 6.979 104.656C6.979 106.565 6.979 108.369 6.979 110.173C7.82392 110.173 8.56208 110.173 9.38201 110.173C9.38201 108.301 9.38201 106.555 9.38201 104.689ZM6.18179 111.188C5.11429 111.445 4.1331 111.272 3.14282 111.766C3.0338 112.748 3.0338 113.688 3.1292 114.666C4.06269 115.076 4.97574 115.174 5.9274 114.923C6.16816 113.74 6.2522 112.592 6.18179 111.188Z" fill="#F6F5E9"/>
<path d="M0.634926 116.191C0.246539 114.588 0.46685 113.17 0.405526 111.824C0.0875478 104.747 -0.191816 97.65 0.326034 90.5758C0.700794 85.4489 0.868868 80.3286 0.755305 75.1822C0.741677 74.5222 0.698524 73.8655 0.653098 72.8252C1.33902 73.729 1.23681 74.5547 1.24817 75.2992C1.32994 80.6081 1.12779 85.9008 0.875682 91.1967C0.503193 98.9862 0.675809 106.772 1.1505 114.546C1.18457 115.131 1.19139 115.131 0.634926 116.191Z" fill="#F6F5E9"/>
<path d="M11.5147 74.0518C12.0734 88.405 12.1665 102.625 11.7009 116.965C11.0241 116.624 11.174 115.87 11.1876 115.223C11.2989 110.463 11.4715 105.707 11.5215 100.947C11.5896 94.4032 11.3761 87.8621 11.2239 81.3211C11.1785 79.3737 11.1899 77.4263 11.199 75.479C11.2035 75.0401 11.074 74.5232 11.5147 74.0518Z" fill="#F6F5E9"/>
<path d="M2.53867 37.0039C5.03025 37.0039 7.5332 37.0039 10.2383 37.0039C10.186 51.5587 10.0271 65.821 10.1815 80.1157C7.47641 79.6541 4.95757 79.2477 2.52277 79.6118C1.69375 65.4276 2.75444 51.1198 2.53867 37.0039ZM2.82257 67.336C3.90597 67.531 4.99618 67.518 6.13863 67.414C6.13863 65.5479 6.13863 63.8574 6.13863 62.0043C4.98255 62.1116 3.9037 62.027 2.82257 62.6155C2.82257 64.111 2.82257 65.5576 2.82257 67.336ZM2.98838 50.5737C2.98838 52.0887 2.98838 53.5224 2.98838 55.0959C4.05588 55.0211 5.09385 54.9528 6.20677 54.8748C6.15908 53.2818 6.30898 51.7928 6.08412 50.2713C5.05978 49.9885 4.1013 50.2681 2.98838 50.5737ZM9.57507 49.2733C9.57507 47.5437 9.57507 45.9507 9.57507 44.3252C8.59842 43.8376 7.68083 43.9969 6.64286 44.1009C6.72008 45.876 6.79503 47.56 6.87225 49.3285C7.79439 49.3025 8.63703 49.6114 9.57507 49.2733ZM5.93876 43.1451C6.19542 41.2432 6.01371 39.569 5.89788 37.8524C4.88262 37.8004 3.99682 37.6183 3.08604 37.976C3.26774 39.7413 3.02472 41.4708 3.32907 43.1418C4.21032 43.1451 5.02798 43.1451 5.93876 43.1451ZM9.5092 61.1558C9.5092 59.4002 9.5092 57.7617 9.5092 56.0972C8.61432 55.8566 7.81029 55.7461 6.97673 55.8403C6.97673 57.7227 6.97673 59.462 6.97673 61.2208C7.8489 61.3768 8.63022 61.4711 9.5092 61.1558ZM9.38201 68.4673C8.52574 68.4153 7.73079 68.0869 6.979 68.4348C6.979 70.3432 6.979 72.1475 6.979 73.9518C7.82392 73.9518 8.56208 73.9518 9.38201 73.9518C9.38201 72.0792 9.38201 70.3334 9.38201 68.4673ZM6.18179 74.9661C5.11429 75.2229 4.1331 75.0506 3.14282 75.5448C3.0338 76.5266 3.0338 77.4662 3.1292 78.4447C4.06269 78.8543 4.97574 78.9519 5.9274 78.7015C6.16816 77.5182 6.2522 76.3706 6.18179 74.9661Z" fill="#F6F5E9"/>
<path d="M0.634929 40.5418C0.246541 42.1446 0.466853 43.562 0.405528 44.908C0.0875497 51.9854 -0.191815 59.0824 0.326035 66.1566C0.700795 71.2835 0.868869 76.4039 0.755305 81.5502C0.741677 82.2102 0.698524 82.8669 0.653098 83.9072C1.33902 83.0034 1.23681 82.1777 1.24817 81.4332C1.32994 76.1243 1.12779 70.8316 0.875683 65.5357C0.503194 57.7462 0.675811 49.9601 1.15051 42.1869C1.18458 41.6017 1.19139 41.6017 0.634929 40.5418Z" fill="#F6F5E9"/>
<path d="M11.5147 39.2646C12.0734 53.6179 12.1665 67.8379 11.7009 82.1782C11.0241 81.8368 11.174 81.0826 11.1876 80.4356C11.2989 75.6761 11.4715 70.9199 11.5215 66.1604C11.5896 59.6161 11.3761 53.075 11.2239 46.534C11.1785 44.5866 11.1899 42.6392 11.199 40.6919C11.2035 40.253 11.074 39.736 11.5147 39.2646Z" fill="#F6F5E9"/>
<path d="M2.53867 109.329C5.03025 109.329 7.5332 109.329 10.2383 109.329C10.186 123.884 10.0271 138.146 10.1815 152.441C7.47641 151.979 4.95757 151.573 2.52277 151.937C1.69375 137.753 2.75444 123.445 2.53867 109.329ZM2.82257 139.661C3.90597 139.856 4.99618 139.843 6.13863 139.739C6.13863 137.873 6.13863 136.183 6.13863 134.329C4.98255 134.437 3.9037 134.352 2.82257 134.941C2.82257 136.436 2.82257 137.883 2.82257 139.661ZM2.98838 122.899C2.98838 124.414 2.98838 125.848 2.98838 127.421C4.05588 127.346 5.09385 127.278 6.20677 127.2C6.15908 125.607 6.30898 124.118 6.08412 122.597C5.05978 122.314 4.1013 122.593 2.98838 122.899ZM9.57507 121.598C9.57507 119.869 9.57507 118.276 9.57507 116.65C8.59842 116.163 7.68083 116.322 6.64286 116.426C6.72008 118.201 6.79503 119.885 6.87225 121.654C7.79439 121.628 8.63703 121.937 9.57507 121.598ZM5.93876 115.47C6.19542 113.568 6.01371 111.894 5.89788 110.178C4.88262 110.126 3.99682 109.944 3.08604 110.301C3.26774 112.066 3.02472 113.796 3.32907 115.467C4.21032 115.47 5.02798 115.47 5.93876 115.47ZM9.5092 133.481C9.5092 131.725 9.5092 130.087 9.5092 128.422C8.61432 128.182 7.81029 128.071 6.97673 128.166C6.97673 130.048 6.97673 131.787 6.97673 133.546C7.8489 133.702 8.63022 133.796 9.5092 133.481ZM9.38201 140.793C8.52574 140.741 7.73079 140.412 6.979 140.76C6.979 142.668 6.979 144.473 6.979 146.277C7.82392 146.277 8.56208 146.277 9.38201 146.277C9.38201 144.404 9.38201 142.659 9.38201 140.793ZM6.18179 147.291C5.11429 147.548 4.1331 147.376 3.14282 147.87C3.0338 148.852 3.0338 149.791 3.1292 150.77C4.06269 151.18 4.97574 151.277 5.9274 151.027C6.16816 149.843 6.2522 148.696 6.18179 147.291Z" fill="#F6F5E9"/>
<path d="M0.634929 112.866C0.246541 114.469 0.466853 115.886 0.405528 117.232C0.0875497 124.31 -0.191815 131.407 0.326035 138.481C0.700795 143.608 0.868869 148.728 0.755305 153.874C0.741677 154.534 0.698524 155.191 0.653098 156.231C1.33902 155.328 1.23681 154.502 1.24817 153.757C1.32994 148.449 1.12779 143.156 0.875683 137.86C0.503194 130.07 0.675811 122.284 1.15051 114.511C1.18458 113.926 1.19139 113.926 0.634929 112.866Z" fill="#F6F5E9"/>
<path d="M11.5147 111.59C12.0734 125.943 12.1665 140.163 11.7009 154.503C11.0241 154.162 11.174 153.408 11.1876 152.761C11.2989 148.001 11.4715 143.245 11.5215 138.486C11.5896 131.941 11.3761 125.4 11.2239 118.859C11.1785 116.912 11.1899 114.964 11.199 113.017C11.2035 112.578 11.074 112.061 11.5147 111.59Z" fill="#F6F5E9"/>
<path d="M2.53867 0.90039C5.03025 0.90039 7.5332 0.90039 10.2383 0.900391C10.186 15.4552 10.0271 29.7175 10.1815 44.0122C7.47641 43.5506 4.95757 43.1442 2.52277 43.5083C1.69375 29.3241 2.75444 15.0163 2.53867 0.90039ZM2.82257 31.2324C3.90597 31.4275 4.99618 31.4145 6.13863 31.3105C6.13863 29.4444 6.13863 27.7539 6.13863 25.9008C4.98255 26.0081 3.9037 25.9235 2.82257 26.512C2.82257 28.0074 2.82257 29.4541 2.82257 31.2324ZM2.98838 14.4702C2.98838 15.9851 2.98838 17.4188 2.98838 18.9923C4.05588 18.9176 5.09385 18.8493 6.20677 18.7713C6.15908 17.1783 6.30898 15.6893 6.08412 14.1678C5.05978 13.885 4.1013 14.1646 2.98838 14.4702ZM9.57507 13.1698C9.57507 11.4402 9.57507 9.84721 9.57507 8.2217C8.59842 7.73405 7.68083 7.89335 6.64286 7.99738C6.72008 9.77244 6.79503 11.4565 6.87225 13.225C7.79439 13.199 8.63703 13.5079 9.57507 13.1698ZM5.93876 7.04158C6.19542 5.13973 6.01371 3.46544 5.89788 1.7489C4.88262 1.69689 3.99682 1.51483 3.08604 1.87244C3.26774 3.63775 3.02472 5.3673 3.32907 7.03832C4.21032 7.04158 5.02798 7.04158 5.93876 7.04158ZM9.5092 25.0522C9.5092 23.2967 9.5092 21.6582 9.5092 19.9936C8.61432 19.7531 7.81029 19.6425 6.97673 19.7368C6.97673 21.6192 6.97673 23.3585 6.97673 25.1173C7.8489 25.2733 8.63022 25.3676 9.5092 25.0522ZM9.38201 32.3638C8.52574 32.3118 7.73079 31.9834 6.979 32.3313C6.979 34.2396 6.979 36.044 6.979 37.8483C7.82392 37.8483 8.56208 37.8483 9.38201 37.8483C9.38201 35.9757 9.38201 34.2299 9.38201 32.3638ZM6.18179 38.8626C5.11429 39.1194 4.1331 38.9471 3.14282 39.4413C3.0338 40.4231 3.0338 41.3626 3.1292 42.3412C4.06269 42.7508 4.97574 42.8484 5.9274 42.598C6.16816 41.4146 6.2522 40.267 6.18179 38.8626Z" fill="#F6F5E9"/>
<path d="M0.635049 43.8654C0.246661 42.2626 0.466972 40.8452 0.405648 39.4993C0.0876699 32.4218 -0.191694 25.3248 0.326156 18.2506C0.700916 13.1237 0.86899 8.00336 0.755427 2.85699C0.741799 2.19703 0.698646 1.54033 0.65322 0.5C1.33914 1.40378 1.23694 2.22954 1.24829 2.97402C1.33006 8.28295 1.12792 13.5756 0.875804 18.8715C0.503315 26.661 0.675931 34.4472 1.15063 42.2204C1.1847 42.8056 1.19151 42.8056 0.635049 43.8654Z" fill="#F6F5E9"/>
<path d="M11.5147 1.72656C12.0734 16.0798 12.1665 30.2998 11.7009 44.6401C11.0241 44.2987 11.174 43.5445 11.1876 42.8975C11.2989 38.138 11.4715 33.3818 11.5215 28.6223C11.5896 22.078 11.3761 15.5369 11.2239 8.99587C11.1785 7.0485 11.1899 5.10113 11.199 3.15377C11.2035 2.71488 11.074 2.19796 11.5147 1.72656Z" fill="#F6F5E9"/>
<path d="M2.53867 73.2246C5.03025 73.2246 7.5332 73.2246 10.2383 73.2246C10.186 87.7794 10.0271 102.042 10.1815 116.336C7.47641 115.875 4.95757 115.468 2.52277 115.833C1.69375 101.648 2.75444 87.3406 2.53867 73.2246ZM2.82257 103.557C3.90597 103.752 4.99618 103.739 6.13863 103.635C6.13863 101.769 6.13863 100.078 6.13863 98.225C4.98255 98.3323 3.9037 98.2477 2.82257 98.8362C2.82257 100.332 2.82257 101.778 2.82257 103.557ZM2.98838 86.7944C2.98838 88.3094 2.98838 89.7431 2.98838 91.3166C4.05588 91.2418 5.09385 91.1735 6.20677 91.0955C6.15908 89.5025 6.30898 88.0135 6.08412 86.492C5.05978 86.2092 4.1013 86.4888 2.98838 86.7944ZM9.57507 85.494C9.57507 83.7644 9.57507 82.1714 9.57507 80.5459C8.59842 80.0583 7.68083 80.2176 6.64286 80.3216C6.72008 82.0967 6.79503 83.7807 6.87225 85.5493C7.79439 85.5232 8.63703 85.8321 9.57507 85.494ZM5.93876 79.3658C6.19542 77.4639 6.01371 75.7897 5.89788 74.0731C4.88262 74.0211 3.99682 73.839 3.08604 74.1967C3.26774 75.962 3.02472 77.6915 3.32907 79.3625C4.21032 79.3658 5.02798 79.3658 5.93876 79.3658ZM9.5092 97.3765C9.5092 95.6209 9.5092 93.9824 9.5092 92.3179C8.61432 92.0773 7.81029 91.9668 6.97673 92.061C6.97673 93.9434 6.97673 95.6827 6.97673 97.4415C7.8489 97.5975 8.63022 97.6918 9.5092 97.3765ZM9.38201 104.688C8.52574 104.636 7.73079 104.308 6.979 104.656C6.979 106.564 6.979 108.368 6.979 110.173C7.82392 110.173 8.56208 110.173 9.38201 110.173C9.38201 108.3 9.38201 106.554 9.38201 104.688ZM6.18179 111.187C5.11429 111.444 4.1331 111.271 3.14282 111.765C3.0338 112.747 3.0338 113.687 3.1292 114.665C4.06269 115.075 4.97574 115.173 5.9274 114.922C6.16816 113.739 6.2522 112.591 6.18179 111.187Z" fill="#F6F5E9"/>
<path d="M0.634926 116.19C0.246539 114.587 0.46685 113.169 0.405526 111.823C0.0875478 104.746 -0.191816 97.649 0.326034 90.5748C0.700794 85.4479 0.868868 80.3276 0.755305 75.1812C0.741677 74.5213 0.698524 73.8645 0.653098 72.8242C1.33902 73.728 1.23681 74.5538 1.24817 75.2982C1.32994 80.6072 1.12779 85.8998 0.875682 91.1958C0.503193 98.9852 0.675809 106.771 1.1505 114.545C1.18457 115.13 1.19139 115.13 0.634926 116.19Z" fill="#F6F5E9"/>
<path d="M11.5147 74.0508C12.0734 88.4041 12.1665 102.624 11.7009 116.964C11.0241 116.623 11.174 115.869 11.1876 115.222C11.2989 110.462 11.4715 105.706 11.5215 100.947C11.5896 94.4022 11.3761 87.8611 11.2239 81.3201C11.1785 79.3727 11.1899 77.4253 11.199 75.478C11.2035 75.0391 11.074 74.5222 11.5147 74.0508Z" fill="#F6F5E9"/>
<path d="M2.53867 37.0039C5.03025 37.0039 7.5332 37.0039 10.2383 37.0039C10.186 51.5587 10.0271 65.821 10.1815 80.1157C7.47641 79.6541 4.95757 79.2477 2.52277 79.6118C1.69375 65.4276 2.75444 51.1198 2.53867 37.0039ZM2.82257 67.336C3.90597 67.531 4.99618 67.518 6.13863 67.414C6.13863 65.5479 6.13863 63.8574 6.13863 62.0043C4.98255 62.1116 3.9037 62.027 2.82257 62.6155C2.82257 64.111 2.82257 65.5576 2.82257 67.336ZM2.98838 50.5737C2.98838 52.0887 2.98838 53.5224 2.98838 55.0959C4.05588 55.0211 5.09385 54.9528 6.20677 54.8748C6.15908 53.2818 6.30898 51.7928 6.08412 50.2713C5.05978 49.9885 4.1013 50.2681 2.98838 50.5737ZM9.57507 49.2733C9.57507 47.5437 9.57507 45.9507 9.57507 44.3252C8.59842 43.8376 7.68083 43.9969 6.64286 44.1009C6.72008 45.876 6.79503 47.56 6.87225 49.3285C7.79439 49.3025 8.63703 49.6114 9.57507 49.2733ZM5.93876 43.1451C6.19542 41.2432 6.01371 39.569 5.89788 37.8524C4.88262 37.8004 3.99682 37.6183 3.08604 37.976C3.26774 39.7413 3.02472 41.4708 3.32907 43.1418C4.21032 43.1451 5.02798 43.1451 5.93876 43.1451ZM9.5092 61.1558C9.5092 59.4002 9.5092 57.7617 9.5092 56.0972C8.61432 55.8566 7.81029 55.7461 6.97673 55.8403C6.97673 57.7227 6.97673 59.462 6.97673 61.2208C7.8489 61.3768 8.63022 61.4711 9.5092 61.1558ZM9.38201 68.4673C8.52574 68.4153 7.73079 68.0869 6.979 68.4348C6.979 70.3432 6.979 72.1475 6.979 73.9518C7.82392 73.9518 8.56208 73.9518 9.38201 73.9518C9.38201 72.0792 9.38201 70.3334 9.38201 68.4673ZM6.18179 74.9661C5.11429 75.2229 4.1331 75.0506 3.14282 75.5448C3.0338 76.5266 3.0338 77.4662 3.1292 78.4447C4.06269 78.8543 4.97574 78.9519 5.9274 78.7015C6.16816 77.5182 6.2522 76.3706 6.18179 74.9661Z" fill="#F6F5E9"/>
<path d="M0.634929 40.5418C0.246541 42.1446 0.466853 43.562 0.405528 44.908C0.0875497 51.9854 -0.191815 59.0824 0.326035 66.1566C0.700795 71.2835 0.868869 76.4039 0.755305 81.5502C0.741677 82.2102 0.698524 82.8669 0.653098 83.9072C1.33902 83.0034 1.23681 82.1777 1.24817 81.4332C1.32994 76.1243 1.12779 70.8316 0.875683 65.5357C0.503194 57.7462 0.675811 49.9601 1.15051 42.1869C1.18458 41.6017 1.19139 41.6017 0.634929 40.5418Z" fill="#F6F5E9"/>
<path d="M11.5147 39.2646C12.0734 53.6179 12.1665 67.8379 11.7009 82.1782C11.0241 81.8368 11.174 81.0826 11.1876 80.4356C11.2989 75.6761 11.4715 70.9199 11.5215 66.1604C11.5896 59.6161 11.3761 53.075 11.2239 46.534C11.1785 44.5866 11.1899 42.6392 11.199 40.6919C11.2035 40.253 11.074 39.736 11.5147 39.2646Z" fill="#F6F5E9"/>
<path d="M2.53867 109.329C5.03025 109.329 7.5332 109.329 10.2383 109.329C10.186 123.884 10.0271 138.146 10.1815 152.441C7.47641 151.979 4.95757 151.573 2.52277 151.937C1.69375 137.753 2.75444 123.445 2.53867 109.329ZM2.82257 139.661C3.90597 139.856 4.99618 139.843 6.13863 139.739C6.13863 137.873 6.13863 136.183 6.13863 134.329C4.98255 134.437 3.9037 134.352 2.82257 134.941C2.82257 136.436 2.82257 137.883 2.82257 139.661ZM2.98838 122.899C2.98838 124.414 2.98838 125.848 2.98838 127.421C4.05588 127.346 5.09385 127.278 6.20677 127.2C6.15908 125.607 6.30898 124.118 6.08412 122.597C5.05978 122.314 4.1013 122.593 2.98838 122.899ZM9.57507 121.598C9.57507 119.869 9.57507 118.276 9.57507 116.65C8.59842 116.163 7.68083 116.322 6.64286 116.426C6.72008 118.201 6.79503 119.885 6.87225 121.654C7.79439 121.628 8.63703 121.937 9.57507 121.598ZM5.93876 115.47C6.19542 113.568 6.01371 111.894 5.89788 110.178C4.88262 110.126 3.99682 109.944 3.08604 110.301C3.26774 112.066 3.02472 113.796 3.32907 115.467C4.21032 115.47 5.02798 115.47 5.93876 115.47ZM9.5092 133.481C9.5092 131.725 9.5092 130.087 9.5092 128.422C8.61432 128.182 7.81029 128.071 6.97673 128.166C6.97673 130.048 6.97673 131.787 6.97673 133.546C7.8489 133.702 8.63022 133.796 9.5092 133.481ZM9.38201 140.793C8.52574 140.741 7.73079 140.412 6.979 140.76C6.979 142.668 6.979 144.473 6.979 146.277C7.82392 146.277 8.56208 146.277 9.38201 146.277C9.38201 144.404 9.38201 142.659 9.38201 140.793ZM6.18179 147.291C5.11429 147.548 4.1331 147.376 3.14282 147.87C3.0338 148.852 3.0338 149.791 3.1292 150.77C4.06269 151.18 4.97574 151.277 5.9274 151.027C6.16816 149.843 6.2522 148.696 6.18179 147.291Z" fill="#F6F5E9"/>
<path d="M0.634929 112.866C0.246541 114.469 0.466853 115.886 0.405528 117.232C0.0875497 124.31 -0.191815 131.407 0.326035 138.481C0.700795 143.608 0.868869 148.728 0.755305 153.874C0.741677 154.534 0.698524 155.191 0.653098 156.231C1.33902 155.328 1.23681 154.502 1.24817 153.757C1.32994 148.449 1.12779 143.156 0.875683 137.86C0.503194 130.07 0.675811 122.284 1.15051 114.511C1.18458 113.926 1.19139 113.926 0.634929 112.866Z" fill="#F6F5E9"/>
<path d="M11.5147 111.59C12.0734 125.943 12.1665 140.163 11.7009 154.503C11.0241 154.162 11.174 153.408 11.1876 152.761C11.2989 148.001 11.4715 143.245 11.5215 138.486C11.5896 131.941 11.3761 125.4 11.2239 118.859C11.1785 116.912 11.1899 114.964 11.199 113.017C11.2035 112.578 11.074 112.061 11.5147 111.59Z" fill="#F6F5E9"/>
<path d="M2.53867 144.677C5.03025 144.677 7.5332 144.677 10.2383 144.677C10.186 159.232 10.0271 173.494 10.1815 187.789C7.47641 187.327 4.95757 186.921 2.52277 187.285C1.69375 173.1 2.75444 158.793 2.53867 144.677ZM2.82257 175.009C3.90597 175.204 4.99618 175.191 6.13863 175.087C6.13863 173.221 6.13863 171.53 6.13863 169.677C4.98255 169.784 3.9037 169.7 2.82257 170.288C2.82257 171.784 2.82257 173.23 2.82257 175.009ZM2.98838 158.247C2.98838 159.762 2.98838 161.195 2.98838 162.769C4.05588 162.694 5.09385 162.626 6.20677 162.548C6.15908 160.955 6.30898 159.466 6.08412 157.944C5.05978 157.661 4.1013 157.941 2.98838 158.247ZM9.57507 156.946C9.57507 155.217 9.57507 153.624 9.57507 151.998C8.59842 151.51 7.68083 151.67 6.64286 151.774C6.72008 153.549 6.79503 155.233 6.87225 157.001C7.79439 156.975 8.63703 157.284 9.57507 156.946ZM5.93876 150.818C6.19542 148.916 6.01371 147.242 5.89788 145.525C4.88262 145.473 3.99682 145.291 3.08604 145.649C3.26774 147.414 3.02472 149.144 3.32907 150.815C4.21032 150.818 5.02798 150.818 5.93876 150.818ZM9.5092 168.829C9.5092 167.073 9.5092 165.435 9.5092 163.77C8.61432 163.529 7.81029 163.419 6.97673 163.513C6.97673 165.396 6.97673 167.135 6.97673 168.894C7.8489 169.05 8.63022 169.144 9.5092 168.829ZM9.38201 176.14C8.52574 176.088 7.73079 175.76 6.979 176.108C6.979 178.016 6.979 179.82 6.979 181.625C7.82392 181.625 8.56208 181.625 9.38201 181.625C9.38201 179.752 9.38201 178.006 9.38201 176.14ZM6.18179 182.639C5.11429 182.896 4.1331 182.723 3.14282 183.218C3.0338 184.199 3.0338 185.139 3.1292 186.118C4.06269 186.527 4.97574 186.625 5.9274 186.374C6.16816 185.191 6.2522 184.043 6.18179 182.639Z" fill="#F6F5E9"/>
<path d="M0.634926 187.642C0.246539 186.039 0.46685 184.622 0.405526 183.276C0.0875478 176.198 -0.191816 169.101 0.326034 162.027C0.700794 156.9 0.868868 151.78 0.755305 146.633C0.741677 145.973 0.698524 145.317 0.653098 144.276C1.33902 145.18 1.23681 146.006 1.24817 146.75C1.32994 152.059 1.12779 157.352 0.875682 162.648C0.503193 170.437 0.675809 178.224 1.1505 185.997C1.18457 186.582 1.19139 186.582 0.634926 187.642Z" fill="#F6F5E9"/>
<path d="M11.5147 145.501C12.0734 159.854 12.1665 174.074 11.7009 188.414C11.0241 188.073 11.174 187.319 11.1876 186.672C11.2989 181.912 11.4715 177.156 11.5215 172.397C11.5896 165.852 11.3761 159.311 11.2239 152.77C11.1785 150.823 11.1899 148.876 11.199 146.928C11.2035 146.489 11.074 145.972 11.5147 145.501Z" fill="#F6F5E9"/>
<path d="M2.53867 217.002C5.03025 217.002 7.5332 217.002 10.2383 217.002C10.186 231.557 10.0271 245.819 10.1815 260.114C7.47641 259.652 4.95757 259.246 2.52277 259.61C1.69375 245.426 2.75444 231.118 2.53867 217.002ZM2.82257 247.334C3.90597 247.529 4.99618 247.516 6.13863 247.412C6.13863 245.546 6.13863 243.855 6.13863 242.002C4.98255 242.11 3.9037 242.025 2.82257 242.614C2.82257 244.109 2.82257 245.556 2.82257 247.334ZM2.98838 230.572C2.98838 232.087 2.98838 233.52 2.98838 235.094C4.05588 235.019 5.09385 234.951 6.20677 234.873C6.15908 233.28 6.30898 231.791 6.08412 230.269C5.05978 229.987 4.1013 230.266 2.98838 230.572ZM9.57507 229.271C9.57507 227.542 9.57507 225.949 9.57507 224.323C8.59842 223.836 7.68083 223.995 6.64286 224.099C6.72008 225.874 6.79503 227.558 6.87225 229.327C7.79439 229.301 8.63703 229.609 9.57507 229.271ZM5.93876 223.143C6.19542 221.241 6.01371 219.567 5.89788 217.85C4.88262 217.798 3.99682 217.616 3.08604 217.974C3.26774 219.739 3.02472 221.469 3.32907 223.14C4.21032 223.143 5.02798 223.143 5.93876 223.143ZM9.5092 241.154C9.5092 239.398 9.5092 237.76 9.5092 236.095C8.61432 235.855 7.81029 235.744 6.97673 235.838C6.97673 237.721 6.97673 239.46 6.97673 241.219C7.8489 241.375 8.63022 241.469 9.5092 241.154ZM9.38201 248.465C8.52574 248.413 7.73079 248.085 6.979 248.433C6.979 250.341 6.979 252.146 6.979 253.95C7.82392 253.95 8.56208 253.95 9.38201 253.95C9.38201 252.077 9.38201 250.331 9.38201 248.465ZM6.18179 254.964C5.11429 255.221 4.1331 255.049 3.14282 255.543C3.0338 256.525 3.0338 257.464 3.1292 258.443C4.06269 258.852 4.97574 258.95 5.9274 258.7C6.16816 257.516 6.2522 256.369 6.18179 254.964Z" fill="#F6F5E9"/>
<path d="M0.634926 259.967C0.246539 258.364 0.46685 256.947 0.405526 255.601C0.0875478 248.523 -0.191816 241.426 0.326034 234.352C0.700794 229.225 0.868868 224.105 0.755305 218.959C0.741677 218.299 0.698524 217.642 0.653098 216.602C1.33902 217.505 1.23681 218.331 1.24817 219.076C1.32994 224.385 1.12779 229.677 0.875682 234.973C0.503193 242.763 0.675809 250.549 1.1505 258.322C1.18457 258.907 1.19139 258.907 0.634926 259.967Z" fill="#F6F5E9"/>
<path d="M11.5147 217.828C12.0734 232.181 12.1665 246.401 11.7009 260.742C11.0241 260.4 11.174 259.646 11.1876 258.999C11.2989 254.24 11.4715 249.483 11.5215 244.724C11.5896 238.18 11.3761 231.638 11.2239 225.097C11.1785 223.15 11.1899 221.203 11.199 219.255C11.2035 218.816 11.074 218.3 11.5147 217.828Z" fill="#F6F5E9"/>
<path d="M2.53867 180.78C5.03025 180.78 7.5332 180.78 10.2383 180.78C10.186 195.335 10.0271 209.597 10.1815 223.892C7.47641 223.43 4.95757 223.024 2.52277 223.388C1.69375 209.204 2.75444 194.896 2.53867 180.78ZM2.82257 211.112C3.90597 211.307 4.99618 211.294 6.13863 211.19C6.13863 209.324 6.13863 207.634 6.13863 205.781C4.98255 205.888 3.9037 205.803 2.82257 206.392C2.82257 207.887 2.82257 209.334 2.82257 211.112ZM2.98838 194.35C2.98838 195.865 2.98838 197.299 2.98838 198.872C4.05588 198.797 5.09385 198.729 6.20677 198.651C6.15908 197.058 6.30898 195.569 6.08412 194.048C5.05978 193.765 4.1013 194.044 2.98838 194.35ZM9.57507 193.05C9.57507 191.32 9.57507 189.727 9.57507 188.102C8.59842 187.614 7.68083 187.773 6.64286 187.877C6.72008 189.652 6.79503 191.336 6.87225 193.105C7.79439 193.079 8.63703 193.388 9.57507 193.05ZM5.93876 186.921C6.19542 185.02 6.01371 183.345 5.89788 181.629C4.88262 181.577 3.99682 181.395 3.08604 181.752C3.26774 183.518 3.02472 185.247 3.32907 186.918C4.21032 186.921 5.02798 186.921 5.93876 186.921ZM9.5092 204.932C9.5092 203.177 9.5092 201.538 9.5092 199.874C8.61432 199.633 7.81029 199.522 6.97673 199.617C6.97673 201.499 6.97673 203.238 6.97673 204.997C7.8489 205.153 8.63022 205.247 9.5092 204.932ZM9.38201 212.244C8.52574 212.192 7.73079 211.863 6.979 212.211C6.979 214.12 6.979 215.924 6.979 217.728C7.82392 217.728 8.56208 217.728 9.38201 217.728C9.38201 215.856 9.38201 214.11 9.38201 212.244ZM6.18179 218.742C5.11429 218.999 4.1331 218.827 3.14282 219.321C3.0338 220.303 3.0338 221.243 3.1292 222.221C4.06269 222.631 4.97574 222.728 5.9274 222.478C6.16816 221.295 6.2522 220.147 6.18179 218.742Z" fill="#F6F5E9"/>
<path d="M0.634929 184.316C0.246541 185.919 0.466853 187.336 0.405528 188.682C0.0875497 195.76 -0.191815 202.857 0.326035 209.931C0.700795 215.058 0.868869 220.178 0.755305 225.325C0.741677 225.985 0.698524 226.641 0.653098 227.682C1.33902 226.778 1.23681 225.952 1.24817 225.208C1.32994 219.899 1.12779 214.606 0.875683 209.31C0.503194 201.521 0.675811 193.734 1.15051 185.961C1.18458 185.376 1.19139 185.376 0.634929 184.316Z" fill="#F6F5E9"/>
<path d="M11.5147 183.041C12.0734 197.394 12.1665 211.614 11.7009 225.955C11.0241 225.613 11.174 224.859 11.1876 224.212C11.2989 219.452 11.4715 214.696 11.5215 209.937C11.5896 203.392 11.3761 196.851 11.2239 190.31C11.1785 188.363 11.1899 186.416 11.199 184.468C11.2035 184.029 11.074 183.512 11.5147 183.041Z" fill="#F6F5E9"/>
<path d="M2.53867 253.104C5.03025 253.104 7.5332 253.104 10.2383 253.104C10.186 267.659 10.0271 281.922 10.1815 296.216C7.47641 295.755 4.95757 295.348 2.52277 295.712C1.69375 281.528 2.75444 267.22 2.53867 253.104ZM2.82257 283.437C3.90597 283.632 4.99618 283.619 6.13863 283.515C6.13863 281.648 6.13863 279.958 6.13863 278.105C4.98255 278.212 3.9037 278.128 2.82257 278.716C2.82257 280.212 2.82257 281.658 2.82257 283.437ZM2.98838 266.674C2.98838 268.189 2.98838 269.623 2.98838 271.196C4.05588 271.122 5.09385 271.053 6.20677 270.975C6.15908 269.382 6.30898 267.893 6.08412 266.372C5.05978 266.089 4.1013 266.369 2.98838 266.674ZM9.57507 265.374C9.57507 263.644 9.57507 262.051 9.57507 260.426C8.59842 259.938 7.68083 260.097 6.64286 260.201C6.72008 261.977 6.79503 263.661 6.87225 265.429C7.79439 265.403 8.63703 265.712 9.57507 265.374ZM5.93876 259.246C6.19542 257.344 6.01371 255.67 5.89788 253.953C4.88262 253.901 3.99682 253.719 3.08604 254.077C3.26774 255.842 3.02472 257.571 3.32907 259.242C4.21032 259.246 5.02798 259.246 5.93876 259.246ZM9.5092 277.256C9.5092 275.501 9.5092 273.862 9.5092 272.198C8.61432 271.957 7.81029 271.847 6.97673 271.941C6.97673 273.823 6.97673 275.563 6.97673 277.321C7.8489 277.477 8.63022 277.572 9.5092 277.256ZM9.38201 284.568C8.52574 284.516 7.73079 284.188 6.979 284.535C6.979 286.444 6.979 288.248 6.979 290.052C7.82392 290.052 8.56208 290.052 9.38201 290.052C9.38201 288.18 9.38201 286.434 9.38201 284.568ZM6.18179 291.067C5.11429 291.324 4.1331 291.151 3.14282 291.645C3.0338 292.627 3.0338 293.567 3.1292 294.545C4.06269 294.955 4.97574 295.052 5.9274 294.802C6.16816 293.619 6.2522 292.471 6.18179 291.067Z" fill="#F6F5E9"/>
<path d="M0.634929 256.642C0.246541 258.245 0.466853 259.663 0.405528 261.009C0.0875497 268.086 -0.191815 275.183 0.326035 282.257C0.700795 287.384 0.868869 292.504 0.755305 297.651C0.741677 298.311 0.698524 298.967 0.653098 300.008C1.33902 299.104 1.23681 298.278 1.24817 297.534C1.32994 292.225 1.12779 286.932 0.875683 281.636C0.503194 273.847 0.675811 266.061 1.15051 258.287C1.18458 257.702 1.19139 257.702 0.634929 256.642Z" fill="#F6F5E9"/>
<path d="M11.5147 255.365C12.0734 269.719 12.1665 283.938 11.7009 298.279C11.0241 297.937 11.174 297.183 11.1876 296.536C11.2989 291.777 11.4715 287.02 11.5215 282.261C11.5896 275.717 11.3761 269.176 11.2239 262.635C11.1785 260.687 11.1899 258.74 11.199 256.792C11.2035 256.354 11.074 255.837 11.5147 255.365Z" fill="#F6F5E9"/>
<path d="M2.53867 289.238C5.03025 289.238 7.5332 289.238 10.2383 289.238C10.186 303.793 10.0271 318.055 10.1815 332.35C7.47641 331.888 4.95757 331.482 2.52277 331.846C1.69375 317.662 2.75444 303.354 2.53867 289.238ZM2.82257 319.57C3.90597 319.765 4.99618 319.752 6.13863 319.648C6.13863 317.782 6.13863 316.092 6.13863 314.239C4.98255 314.346 3.9037 314.261 2.82257 314.85C2.82257 316.345 2.82257 317.792 2.82257 319.57ZM2.98838 302.808C2.98838 304.323 2.98838 305.757 2.98838 307.33C4.05588 307.255 5.09385 307.187 6.20677 307.109C6.15908 305.516 6.30898 304.027 6.08412 302.506C5.05978 302.223 4.1013 302.502 2.98838 302.808ZM9.57507 301.508C9.57507 299.778 9.57507 298.185 9.57507 296.56C8.59842 296.072 7.68083 296.231 6.64286 296.335C6.72008 298.11 6.79503 299.794 6.87225 301.563C7.79439 301.537 8.63703 301.846 9.57507 301.508ZM5.93876 295.379C6.19542 293.478 6.01371 291.803 5.89788 290.087C4.88262 290.035 3.99682 289.853 3.08604 290.21C3.26774 291.976 3.02472 293.705 3.32907 295.376C4.21032 295.379 5.02798 295.379 5.93876 295.379ZM9.5092 313.39C9.5092 311.635 9.5092 309.996 9.5092 308.332C8.61432 308.091 7.81029 307.98 6.97673 308.075C6.97673 309.957 6.97673 311.696 6.97673 313.455C7.8489 313.611 8.63022 313.705 9.5092 313.39ZM9.38201 320.702C8.52574 320.65 7.73079 320.321 6.979 320.669C6.979 322.578 6.979 324.382 6.979 326.186C7.82392 326.186 8.56208 326.186 9.38201 326.186C9.38201 324.314 9.38201 322.568 9.38201 320.702ZM6.18179 327.2C5.11429 327.457 4.1331 327.285 3.14282 327.779C3.0338 328.761 3.0338 329.701 3.1292 330.679C4.06269 331.089 4.97574 331.186 5.9274 330.936C6.16816 329.753 6.2522 328.605 6.18179 327.2Z" fill="#F6F5E9"/>
<path d="M0.634926 332.203C0.246539 330.601 0.46685 329.183 0.405526 327.837C0.0875478 320.76 -0.191816 313.663 0.326034 306.588C0.700794 301.462 0.868868 296.341 0.755305 291.195C0.741677 290.535 0.698524 289.878 0.653098 288.838C1.33902 289.742 1.23681 290.567 1.24817 291.312C1.32994 296.621 1.12779 301.914 0.875682 307.209C0.503193 314.999 0.675809 322.785 1.1505 330.558C1.18457 331.143 1.19139 331.143 0.634926 332.203Z" fill="#F6F5E9"/>
<path d="M11.5147 290.064C12.0734 304.418 12.1665 318.638 11.7009 332.978C11.0241 332.637 11.174 331.882 11.1876 331.235C11.2989 326.476 11.4715 321.72 11.5215 316.96C11.5896 310.416 11.3761 303.875 11.2239 297.334C11.1785 295.386 11.1899 293.439 11.199 291.492C11.2035 291.053 11.074 290.536 11.5147 290.064Z" fill="#F6F5E9"/>
<path d="M2.53867 361.565C5.03025 361.565 7.5332 361.565 10.2383 361.565C10.186 376.12 10.0271 390.382 10.1815 404.677C7.47641 404.216 4.95757 403.809 2.52277 404.173C1.69375 389.989 2.75444 375.681 2.53867 361.565ZM2.82257 391.897C3.90597 392.093 4.99618 392.08 6.13863 391.975C6.13863 390.109 6.13863 388.419 6.13863 386.566C4.98255 386.673 3.9037 386.589 2.82257 387.177C2.82257 388.672 2.82257 390.119 2.82257 391.897ZM2.98838 375.135C2.98838 376.65 2.98838 378.084 2.98838 379.657C4.05588 379.583 5.09385 379.514 6.20677 379.436C6.15908 377.843 6.30898 376.354 6.08412 374.833C5.05978 374.55 4.1013 374.83 2.98838 375.135ZM9.57507 373.835C9.57507 372.105 9.57507 370.512 9.57507 368.887C8.59842 368.399 7.68083 368.558 6.64286 368.662C6.72008 370.437 6.79503 372.122 6.87225 373.89C7.79439 373.864 8.63703 374.173 9.57507 373.835ZM5.93876 367.707C6.19542 365.805 6.01371 364.13 5.89788 362.414C4.88262 362.362 3.99682 362.18 3.08604 362.537C3.26774 364.303 3.02472 366.032 3.32907 367.703C4.21032 367.707 5.02798 367.707 5.93876 367.707ZM9.5092 385.717C9.5092 383.962 9.5092 382.323 9.5092 380.659C8.61432 380.418 7.81029 380.308 6.97673 380.402C6.97673 382.284 6.97673 384.023 6.97673 385.782C7.8489 385.938 8.63022 386.033 9.5092 385.717ZM9.38201 393.029C8.52574 392.977 7.73079 392.648 6.979 392.996C6.979 394.905 6.979 396.709 6.979 398.513C7.82392 398.513 8.56208 398.513 9.38201 398.513C9.38201 396.641 9.38201 394.895 9.38201 393.029ZM6.18179 399.528C5.11429 399.784 4.1331 399.612 3.14282 400.106C3.0338 401.088 3.0338 402.028 3.1292 403.006C4.06269 403.416 4.97574 403.513 5.9274 403.263C6.16816 402.08 6.2522 400.932 6.18179 399.528Z" fill="#F6F5E9"/>
<path d="M0.634926 404.53C0.246539 402.928 0.46685 401.51 0.405526 400.164C0.0875478 393.087 -0.191816 385.99 0.326034 378.916C0.700794 373.789 0.868868 368.668 0.755305 363.522C0.741677 362.862 0.698524 362.205 0.653098 361.165C1.33902 362.069 1.23681 362.895 1.24817 363.639C1.32994 368.948 1.12779 374.241 0.875682 379.537C0.503193 387.326 0.675809 395.112 1.1505 402.885C1.18457 403.471 1.19139 403.471 0.634926 404.53Z" fill="#F6F5E9"/>
<path d="M11.5147 362.392C12.0734 376.745 12.1665 390.965 11.7009 405.305C11.0241 404.964 11.174 404.21 11.1876 403.563C11.2989 398.803 11.4715 394.047 11.5215 389.287C11.5896 382.743 11.3761 376.202 11.2239 369.661C11.1785 367.714 11.1899 365.766 11.199 363.819C11.2035 363.38 11.074 362.863 11.5147 362.392Z" fill="#F6F5E9"/>
<path d="M2.53867 325.342C5.03025 325.342 7.5332 325.342 10.2383 325.342C10.186 339.897 10.0271 354.159 10.1815 368.454C7.47641 367.992 4.95757 367.586 2.52277 367.95C1.69375 353.765 2.75444 339.458 2.53867 325.342ZM2.82257 355.674C3.90597 355.869 4.99618 355.856 6.13863 355.752C6.13863 353.886 6.13863 352.195 6.13863 350.342C4.98255 350.449 3.9037 350.365 2.82257 350.953C2.82257 352.449 2.82257 353.896 2.82257 355.674ZM2.98838 338.912C2.98838 340.427 2.98838 341.86 2.98838 343.434C4.05588 343.359 5.09385 343.291 6.20677 343.213C6.15908 341.62 6.30898 340.131 6.08412 338.609C5.05978 338.326 4.1013 338.606 2.98838 338.912ZM9.57507 337.611C9.57507 335.882 9.57507 334.289 9.57507 332.663C8.59842 332.175 7.68083 332.335 6.64286 332.439C6.72008 334.214 6.79503 335.898 6.87225 337.666C7.79439 337.64 8.63703 337.949 9.57507 337.611ZM5.93876 331.483C6.19542 329.581 6.01371 327.907 5.89788 326.19C4.88262 326.138 3.99682 325.956 3.08604 326.314C3.26774 328.079 3.02472 329.809 3.32907 331.48C4.21032 331.483 5.02798 331.483 5.93876 331.483ZM9.5092 349.494C9.5092 347.738 9.5092 346.1 9.5092 344.435C8.61432 344.194 7.81029 344.084 6.97673 344.178C6.97673 346.061 6.97673 347.8 6.97673 349.559C7.8489 349.715 8.63022 349.809 9.5092 349.494ZM9.38201 356.805C8.52574 356.753 7.73079 356.425 6.979 356.773C6.979 358.681 6.979 360.485 6.979 362.29C7.82392 362.29 8.56208 362.29 9.38201 362.29C9.38201 360.417 9.38201 358.671 9.38201 356.805ZM6.18179 363.304C5.11429 363.561 4.1331 363.389 3.14282 363.883C3.0338 364.864 3.0338 365.804 3.1292 366.783C4.06269 367.192 4.97574 367.29 5.9274 367.039C6.16816 365.856 6.2522 364.708 6.18179 363.304Z" fill="#F6F5E9"/>
<path d="M0.634929 328.88C0.246541 330.482 0.466853 331.9 0.405528 333.246C0.0875497 340.323 -0.191815 347.42 0.326035 354.495C0.700795 359.621 0.868869 364.742 0.755305 369.888C0.741677 370.548 0.698524 371.205 0.653098 372.245C1.33902 371.341 1.23681 370.516 1.24817 369.771C1.32994 364.462 1.12779 359.169 0.875683 353.874C0.503194 346.084 0.675811 338.298 1.15051 330.525C1.18458 329.94 1.19139 329.94 0.634929 328.88Z" fill="#F6F5E9"/>
<path d="M11.5147 327.603C12.0734 341.956 12.1665 356.176 11.7009 370.516C11.0241 370.175 11.174 369.42 11.1876 368.774C11.2989 364.014 11.4715 359.258 11.5215 354.498C11.5896 347.954 11.3761 341.413 11.2239 334.872C11.1785 332.924 11.1899 330.977 11.199 329.03C11.2035 328.591 11.074 328.074 11.5147 327.603Z" fill="#F6F5E9"/>
<path d="M2.53867 397.669C5.03025 397.669 7.5332 397.669 10.2383 397.669C10.186 412.224 10.0271 426.486 10.1815 440.781C7.47641 440.319 4.95757 439.913 2.52277 440.277C1.69375 426.093 2.75444 411.785 2.53867 397.669ZM2.82257 428.001C3.90597 428.196 4.99618 428.183 6.13863 428.079C6.13863 426.213 6.13863 424.522 6.13863 422.669C4.98255 422.777 3.9037 422.692 2.82257 423.281C2.82257 424.776 2.82257 426.223 2.82257 428.001ZM2.98838 411.239C2.98838 412.754 2.98838 414.187 2.98838 415.761C4.05588 415.686 5.09385 415.618 6.20677 415.54C6.15908 413.947 6.30898 412.458 6.08412 410.936C5.05978 410.654 4.1013 410.933 2.98838 411.239ZM9.57507 409.938C9.57507 408.209 9.57507 406.616 9.57507 404.99C8.59842 404.503 7.68083 404.662 6.64286 404.766C6.72008 406.541 6.79503 408.225 6.87225 409.994C7.79439 409.968 8.63703 410.276 9.57507 409.938ZM5.93876 403.81C6.19542 401.908 6.01371 400.234 5.89788 398.517C4.88262 398.465 3.99682 398.283 3.08604 398.641C3.26774 400.406 3.02472 402.136 3.32907 403.807C4.21032 403.81 5.02798 403.81 5.93876 403.81ZM9.5092 421.821C9.5092 420.065 9.5092 418.427 9.5092 416.762C8.61432 416.522 7.81029 416.411 6.97673 416.505C6.97673 418.388 6.97673 420.127 6.97673 421.886C7.8489 422.042 8.63022 422.136 9.5092 421.821ZM9.38201 429.132C8.52574 429.08 7.73079 428.752 6.979 429.1C6.979 431.008 6.979 432.813 6.979 434.617C7.82392 434.617 8.56208 434.617 9.38201 434.617C9.38201 432.744 9.38201 430.998 9.38201 429.132ZM6.18179 435.631C5.11429 435.888 4.1331 435.716 3.14282 436.21C3.0338 437.192 3.0338 438.131 3.1292 439.11C4.06269 439.519 4.97574 439.617 5.9274 439.367C6.16816 438.183 6.2522 437.036 6.18179 435.631Z" fill="#F6F5E9"/>
<path d="M0.634929 401.207C0.246541 402.81 0.466853 404.227 0.405528 405.573C0.0875497 412.65 -0.191815 419.747 0.326035 426.822C0.700795 431.949 0.868869 437.069 0.755305 442.215C0.741677 442.875 0.698524 443.532 0.653098 444.572C1.33902 443.668 1.23681 442.843 1.24817 442.098C1.32994 436.789 1.12779 431.497 0.875683 426.201C0.503194 418.411 0.675811 410.625 1.15051 402.852C1.18458 402.267 1.19139 402.267 0.634929 401.207Z" fill="#F6F5E9"/>
<path d="M11.5147 399.929C12.0734 414.282 12.1665 428.502 11.7009 442.842C11.0241 442.501 11.174 441.747 11.1876 441.1C11.2989 436.34 11.4715 431.584 11.5215 426.824C11.5896 420.28 11.3761 413.739 11.2239 407.198C11.1785 405.251 11.1899 403.303 11.199 401.356C11.2035 400.917 11.074 400.4 11.5147 399.929Z" fill="#F6F5E9"/>
<path d="M2.53867 289.238C5.03025 289.238 7.5332 289.238 10.2383 289.238C10.186 303.793 10.0271 318.055 10.1815 332.35C7.47641 331.888 4.95757 331.482 2.52277 331.846C1.69375 317.662 2.75444 303.354 2.53867 289.238ZM2.82257 319.57C3.90597 319.765 4.99618 319.752 6.13863 319.648C6.13863 317.782 6.13863 316.092 6.13863 314.239C4.98255 314.346 3.9037 314.261 2.82257 314.85C2.82257 316.345 2.82257 317.792 2.82257 319.57ZM2.98838 302.808C2.98838 304.323 2.98838 305.757 2.98838 307.33C4.05588 307.255 5.09385 307.187 6.20677 307.109C6.15908 305.516 6.30898 304.027 6.08412 302.506C5.05978 302.223 4.1013 302.502 2.98838 302.808ZM9.57507 301.508C9.57507 299.778 9.57507 298.185 9.57507 296.56C8.59842 296.072 7.68083 296.231 6.64286 296.335C6.72008 298.11 6.79503 299.794 6.87225 301.563C7.79439 301.537 8.63703 301.846 9.57507 301.508ZM5.93876 295.379C6.19542 293.478 6.01371 291.803 5.89788 290.087C4.88262 290.035 3.99682 289.853 3.08604 290.21C3.26774 291.976 3.02472 293.705 3.32907 295.376C4.21032 295.379 5.02798 295.379 5.93876 295.379ZM9.5092 313.39C9.5092 311.635 9.5092 309.996 9.5092 308.332C8.61432 308.091 7.81029 307.98 6.97673 308.075C6.97673 309.957 6.97673 311.696 6.97673 313.455C7.8489 313.611 8.63022 313.705 9.5092 313.39ZM9.38201 320.702C8.52574 320.65 7.73079 320.321 6.979 320.669C6.979 322.578 6.979 324.382 6.979 326.186C7.82392 326.186 8.56208 326.186 9.38201 326.186C9.38201 324.314 9.38201 322.568 9.38201 320.702ZM6.18179 327.2C5.11429 327.457 4.1331 327.285 3.14282 327.779C3.0338 328.761 3.0338 329.701 3.1292 330.679C4.06269 331.089 4.97574 331.186 5.9274 330.936C6.16816 329.753 6.2522 328.605 6.18179 327.2Z" fill="#F6F5E9"/>
<path d="M0.634926 332.203C0.246539 330.601 0.46685 329.183 0.405526 327.837C0.0875478 320.76 -0.191816 313.663 0.326034 306.588C0.700794 301.462 0.868868 296.341 0.755305 291.195C0.741677 290.535 0.698524 289.878 0.653098 288.838C1.33902 289.742 1.23681 290.567 1.24817 291.312C1.32994 296.621 1.12779 301.914 0.875682 307.209C0.503193 314.999 0.675809 322.785 1.1505 330.558C1.18457 331.143 1.19139 331.143 0.634926 332.203Z" fill="#F6F5E9"/>
<path d="M11.5147 290.064C12.0734 304.418 12.1665 318.638 11.7009 332.978C11.0241 332.637 11.174 331.882 11.1876 331.235C11.2989 326.476 11.4715 321.72 11.5215 316.96C11.5896 310.416 11.3761 303.875 11.2239 297.334C11.1785 295.386 11.1899 293.439 11.199 291.492C11.2035 291.053 11.074 290.536 11.5147 290.064Z" fill="#F6F5E9"/>
<path d="M2.53867 361.566C5.03025 361.566 7.5332 361.566 10.2383 361.566C10.186 376.121 10.0271 390.383 10.1815 404.678C7.47641 404.217 4.95757 403.81 2.52277 404.174C1.69375 389.99 2.75444 375.682 2.53867 361.566ZM2.82257 391.898C3.90597 392.094 4.99618 392.081 6.13863 391.976C6.13863 390.11 6.13863 388.42 6.13863 386.567C4.98255 386.674 3.9037 386.59 2.82257 387.178C2.82257 388.673 2.82257 390.12 2.82257 391.898ZM2.98838 375.136C2.98838 376.651 2.98838 378.085 2.98838 379.658C4.05588 379.584 5.09385 379.515 6.20677 379.437C6.15908 377.844 6.30898 376.355 6.08412 374.834C5.05978 374.551 4.1013 374.831 2.98838 375.136ZM9.57507 373.836C9.57507 372.106 9.57507 370.513 9.57507 368.888C8.59842 368.4 7.68083 368.559 6.64286 368.663C6.72008 370.438 6.79503 372.122 6.87225 373.891C7.79439 373.865 8.63703 374.174 9.57507 373.836ZM5.93876 367.708C6.19542 365.806 6.01371 364.131 5.89788 362.415C4.88262 362.363 3.99682 362.181 3.08604 362.538C3.26774 364.304 3.02472 366.033 3.32907 367.704C4.21032 367.708 5.02798 367.708 5.93876 367.708ZM9.5092 385.718C9.5092 383.963 9.5092 382.324 9.5092 380.66C8.61432 380.419 7.81029 380.309 6.97673 380.403C6.97673 382.285 6.97673 384.024 6.97673 385.783C7.8489 385.939 8.63022 386.034 9.5092 385.718ZM9.38201 393.03C8.52574 392.978 7.73079 392.649 6.979 392.997C6.979 394.906 6.979 396.71 6.979 398.514C7.82392 398.514 8.56208 398.514 9.38201 398.514C9.38201 396.642 9.38201 394.896 9.38201 393.03ZM6.18179 399.529C5.11429 399.785 4.1331 399.613 3.14282 400.107C3.0338 401.089 3.0338 402.029 3.1292 403.007C4.06269 403.417 4.97574 403.514 5.9274 403.264C6.16816 402.081 6.2522 400.933 6.18179 399.529Z" fill="#F6F5E9"/>
<path d="M0.634926 404.531C0.246539 402.929 0.46685 401.511 0.405526 400.165C0.0875478 393.088 -0.191816 385.991 0.326034 378.917C0.700794 373.79 0.868868 368.669 0.755305 363.523C0.741677 362.863 0.698524 362.206 0.653098 361.166C1.33902 362.07 1.23681 362.896 1.24817 363.64C1.32994 368.949 1.12779 374.242 0.875682 379.538C0.503193 387.327 0.675809 395.113 1.1505 402.886C1.18457 403.472 1.19139 403.472 0.634926 404.531Z" fill="#F6F5E9"/>
<path d="M11.5147 362.393C12.0734 376.746 12.1665 390.966 11.7009 405.306C11.0241 404.965 11.174 404.21 11.1876 403.564C11.2989 398.804 11.4715 394.048 11.5215 389.288C11.5896 382.744 11.3761 376.203 11.2239 369.662C11.1785 367.715 11.1899 365.767 11.199 363.82C11.2035 363.381 11.074 362.864 11.5147 362.393Z" fill="#F6F5E9"/>
<path d="M2.53867 325.344C5.03025 325.344 7.5332 325.344 10.2383 325.344C10.186 339.899 10.0271 354.161 10.1815 368.456C7.47641 367.994 4.95757 367.588 2.52277 367.952C1.69375 353.767 2.75444 339.46 2.53867 325.344ZM2.82257 355.676C3.90597 355.871 4.99618 355.858 6.13863 355.754C6.13863 353.888 6.13863 352.197 6.13863 350.344C4.98255 350.451 3.9037 350.367 2.82257 350.955C2.82257 352.451 2.82257 353.897 2.82257 355.676ZM2.98838 338.914C2.98838 340.428 2.98838 341.862 2.98838 343.436C4.05588 343.361 5.09385 343.293 6.20677 343.215C6.15908 341.622 6.30898 340.133 6.08412 338.611C5.05978 338.328 4.1013 338.608 2.98838 338.914ZM9.57507 337.613C9.57507 335.884 9.57507 334.291 9.57507 332.665C8.59842 332.177 7.68083 332.337 6.64286 332.441C6.72008 334.216 6.79503 335.9 6.87225 337.668C7.79439 337.642 8.63703 337.951 9.57507 337.613ZM5.93876 331.485C6.19542 329.583 6.01371 327.909 5.89788 326.192C4.88262 326.14 3.99682 325.958 3.08604 326.316C3.26774 328.081 3.02472 329.811 3.32907 331.482C4.21032 331.485 5.02798 331.485 5.93876 331.485ZM9.5092 349.496C9.5092 347.74 9.5092 346.102 9.5092 344.437C8.61432 344.196 7.81029 344.086 6.97673 344.18C6.97673 346.063 6.97673 347.802 6.97673 349.561C7.8489 349.717 8.63022 349.811 9.5092 349.496ZM9.38201 356.807C8.52574 356.755 7.73079 356.427 6.979 356.775C6.979 358.683 6.979 360.487 6.979 362.292C7.82392 362.292 8.56208 362.292 9.38201 362.292C9.38201 360.419 9.38201 358.673 9.38201 356.807ZM6.18179 363.306C5.11429 363.563 4.1331 363.39 3.14282 363.885C3.0338 364.866 3.0338 365.806 3.1292 366.785C4.06269 367.194 4.97574 367.292 5.9274 367.041C6.16816 365.858 6.2522 364.71 6.18179 363.306Z" fill="#F6F5E9"/>
<path d="M0.634929 328.882C0.246541 330.484 0.466853 331.902 0.405528 333.248C0.0875497 340.325 -0.191815 347.422 0.326035 354.496C0.700795 359.623 0.868869 364.744 0.755305 369.89C0.741677 370.55 0.698524 371.207 0.653098 372.247C1.33902 371.343 1.23681 370.518 1.24817 369.773C1.32994 364.464 1.12779 359.171 0.875683 353.876C0.503194 346.086 0.675811 338.3 1.15051 330.527C1.18458 329.942 1.19139 329.941 0.634929 328.882Z" fill="#F6F5E9"/>
<path d="M11.5147 327.604C12.0734 341.958 12.1665 356.178 11.7009 370.518C11.0241 370.177 11.174 369.422 11.1876 368.775C11.2989 364.016 11.4715 359.26 11.5215 354.5C11.5896 347.956 11.3761 341.415 11.2239 334.874C11.1785 332.926 11.1899 330.979 11.199 329.032C11.2035 328.593 11.074 328.076 11.5147 327.604Z" fill="#F6F5E9"/>
<path d="M2.53867 397.67C5.03025 397.67 7.5332 397.67 10.2383 397.67C10.186 412.225 10.0271 426.487 10.1815 440.782C7.47641 440.32 4.95757 439.914 2.52277 440.278C1.69375 426.094 2.75444 411.786 2.53867 397.67ZM2.82257 428.002C3.90597 428.197 4.99618 428.184 6.13863 428.08C6.13863 426.214 6.13863 424.523 6.13863 422.67C4.98255 422.778 3.9037 422.693 2.82257 423.281C2.82257 424.777 2.82257 426.224 2.82257 428.002ZM2.98838 411.24C2.98838 412.755 2.98838 414.188 2.98838 415.762C4.05588 415.687 5.09385 415.619 6.20677 415.541C6.15908 413.948 6.30898 412.459 6.08412 410.937C5.05978 410.655 4.1013 410.934 2.98838 411.24ZM9.57507 409.939C9.57507 408.21 9.57507 406.617 9.57507 404.991C8.59842 404.504 7.68083 404.663 6.64286 404.767C6.72008 406.542 6.79503 408.226 6.87225 409.995C7.79439 409.969 8.63703 410.277 9.57507 409.939ZM5.93876 403.811C6.19542 401.909 6.01371 400.235 5.89788 398.518C4.88262 398.466 3.99682 398.284 3.08604 398.642C3.26774 400.407 3.02472 402.137 3.32907 403.808C4.21032 403.811 5.02798 403.811 5.93876 403.811ZM9.5092 421.822C9.5092 420.066 9.5092 418.428 9.5092 416.763C8.61432 416.523 7.81029 416.412 6.97673 416.506C6.97673 418.389 6.97673 420.128 6.97673 421.887C7.8489 422.043 8.63022 422.137 9.5092 421.822ZM9.38201 429.133C8.52574 429.081 7.73079 428.753 6.979 429.101C6.979 431.009 6.979 432.813 6.979 434.618C7.82392 434.618 8.56208 434.618 9.38201 434.618C9.38201 432.745 9.38201 430.999 9.38201 429.133ZM6.18179 435.632C5.11429 435.889 4.1331 435.717 3.14282 436.211C3.0338 437.193 3.0338 438.132 3.1292 439.111C4.06269 439.52 4.97574 439.618 5.9274 439.368C6.16816 438.184 6.2522 437.037 6.18179 435.632Z" fill="#F6F5E9"/>
<path d="M0.634929 401.208C0.246541 402.811 0.466853 404.228 0.405528 405.574C0.0875497 412.651 -0.191815 419.748 0.326035 426.823C0.700795 431.95 0.868869 437.07 0.755305 442.216C0.741677 442.876 0.698524 443.533 0.653098 444.573C1.33902 443.669 1.23681 442.844 1.24817 442.099C1.32994 436.79 1.12779 431.498 0.875683 426.202C0.503194 418.412 0.675811 410.626 1.15051 402.853C1.18458 402.268 1.19139 402.268 0.634929 401.208Z" fill="#F6F5E9"/>
<path d="M11.5147 399.93C12.0734 414.283 12.1665 428.503 11.7009 442.843C11.0241 442.502 11.174 441.748 11.1876 441.101C11.2989 436.341 11.4715 431.585 11.5215 426.825C11.5896 420.281 11.3761 413.74 11.2239 407.199C11.1785 405.252 11.1899 403.304 11.199 401.357C11.2035 400.918 11.074 400.401 11.5147 399.93Z" fill="#F6F5E9"/>
<path d="M2.53867 433.017C5.03025 433.017 7.5332 433.017 10.2383 433.017C10.186 447.571 10.0271 461.834 10.1815 476.128C7.47641 475.667 4.95757 475.26 2.52277 475.625C1.69375 461.44 2.75444 447.133 2.53867 433.017ZM2.82257 463.349C3.90597 463.544 4.99618 463.531 6.13863 463.427C6.13863 461.561 6.13863 459.87 6.13863 458.017C4.98255 458.124 3.9037 458.04 2.82257 458.628C2.82257 460.124 2.82257 461.57 2.82257 463.349ZM2.98838 446.586C2.98838 448.101 2.98838 449.535 2.98838 451.109C4.05588 451.034 5.09385 450.966 6.20677 450.887C6.15908 449.294 6.30898 447.806 6.08412 446.284C5.05978 446.001 4.1013 446.281 2.98838 446.586ZM9.57507 445.286C9.57507 443.556 9.57507 441.963 9.57507 440.338C8.59842 439.85 7.68083 440.01 6.64286 440.114C6.72008 441.889 6.79503 443.573 6.87225 445.341C7.79439 445.315 8.63703 445.624 9.57507 445.286ZM5.93876 439.158C6.19542 437.256 6.01371 435.582 5.89788 433.865C4.88262 433.813 3.99682 433.631 3.08604 433.989C3.26774 435.754 3.02472 437.484 3.32907 439.155C4.21032 439.158 5.02798 439.158 5.93876 439.158ZM9.5092 457.168C9.5092 455.413 9.5092 453.774 9.5092 452.11C8.61432 451.869 7.81029 451.759 6.97673 451.853C6.97673 453.735 6.97673 455.475 6.97673 457.233C7.8489 457.39 8.63022 457.484 9.5092 457.168ZM9.38201 464.48C8.52574 464.428 7.73079 464.1 6.979 464.447C6.979 466.356 6.979 468.16 6.979 469.964C7.82392 469.964 8.56208 469.964 9.38201 469.964C9.38201 468.092 9.38201 466.346 9.38201 464.48ZM6.18179 470.979C5.11429 471.236 4.1331 471.063 3.14282 471.557C3.0338 472.539 3.0338 473.479 3.1292 474.457C4.06269 474.867 4.97574 474.965 5.9274 474.714C6.16816 473.531 6.2522 472.383 6.18179 470.979Z" fill="#F6F5E9"/>
<path d="M0.634926 475.982C0.246539 474.379 0.46685 472.961 0.405526 471.615C0.0875478 464.538 -0.191816 457.441 0.326034 450.367C0.700794 445.24 0.868868 440.12 0.755305 434.973C0.741677 434.313 0.698524 433.657 0.653098 432.616C1.33902 433.52 1.23681 434.346 1.24817 435.09C1.32994 440.399 1.12779 445.692 0.875682 450.988C0.503193 458.777 0.675809 466.563 1.1505 474.337C1.18457 474.922 1.19139 474.922 0.634926 475.982Z" fill="#F6F5E9"/>
<path d="M11.5147 433.843C12.0734 448.196 12.1665 462.416 11.7009 476.756C11.0241 476.415 11.174 475.661 11.1876 475.014C11.2989 470.254 11.4715 465.498 11.5215 460.739C11.5896 454.194 11.3761 447.653 11.2239 441.112C11.1785 439.165 11.1899 437.217 11.199 435.27C11.2035 434.831 11.074 434.314 11.5147 433.843Z" fill="#F6F5E9"/>
<path d="M2.53867 505.343C5.03025 505.343 7.5332 505.343 10.2383 505.343C10.186 519.898 10.0271 534.16 10.1815 548.455C7.47641 547.993 4.95757 547.587 2.52277 547.951C1.69375 533.766 2.75444 519.459 2.53867 505.343ZM2.82257 535.675C3.90597 535.87 4.99618 535.857 6.13863 535.753C6.13863 533.887 6.13863 532.196 6.13863 530.343C4.98255 530.45 3.9037 530.366 2.82257 530.954C2.82257 532.45 2.82257 533.897 2.82257 535.675ZM2.98838 518.913C2.98838 520.428 2.98838 521.861 2.98838 523.435C4.05588 523.36 5.09385 523.292 6.20677 523.214C6.15908 521.621 6.30898 520.132 6.08412 518.61C5.05978 518.327 4.1013 518.607 2.98838 518.913ZM9.57507 517.612C9.57507 515.883 9.57507 514.29 9.57507 512.664C8.59842 512.176 7.68083 512.336 6.64286 512.44C6.72008 514.215 6.79503 515.899 6.87225 517.667C7.79439 517.641 8.63703 517.95 9.57507 517.612ZM5.93876 511.484C6.19542 509.582 6.01371 507.908 5.89788 506.191C4.88262 506.139 3.99682 505.957 3.08604 506.315C3.26774 508.08 3.02472 509.81 3.32907 511.481C4.21032 511.484 5.02798 511.484 5.93876 511.484ZM9.5092 529.495C9.5092 527.739 9.5092 526.101 9.5092 524.436C8.61432 524.195 7.81029 524.085 6.97673 524.179C6.97673 526.062 6.97673 527.801 6.97673 529.56C7.8489 529.716 8.63022 529.81 9.5092 529.495ZM9.38201 536.806C8.52574 536.754 7.73079 536.426 6.979 536.774C6.979 538.682 6.979 540.486 6.979 542.291C7.82392 542.291 8.56208 542.291 9.38201 542.291C9.38201 540.418 9.38201 538.672 9.38201 536.806ZM6.18179 543.305C5.11429 543.562 4.1331 543.389 3.14282 543.884C3.0338 544.865 3.0338 545.805 3.1292 546.784C4.06269 547.193 4.97574 547.291 5.9274 547.04C6.16816 545.857 6.2522 544.709 6.18179 543.305Z" fill="#F6F5E9"/>
<path d="M0.634926 548.308C0.246539 546.705 0.46685 545.288 0.405526 543.942C0.0875478 536.864 -0.191816 529.767 0.326034 522.693C0.700794 517.566 0.868868 512.446 0.755305 507.299C0.741677 506.639 0.698524 505.983 0.653098 504.942C1.33902 505.846 1.23681 506.672 1.24817 507.416C1.32994 512.725 1.12779 518.018 0.875682 523.314C0.503193 531.103 0.675809 538.89 1.1505 546.663C1.18457 547.248 1.19139 547.248 0.634926 548.308Z" fill="#F6F5E9"/>
<path d="M11.5147 506.169C12.0734 520.522 12.1665 534.742 11.7009 549.082C11.0241 548.741 11.174 547.987 11.1876 547.34C11.2989 542.58 11.4715 537.824 11.5215 533.065C11.5896 526.52 11.3761 519.979 11.2239 513.438C11.1785 511.491 11.1899 509.544 11.199 507.596C11.2035 507.157 11.074 506.64 11.5147 506.169Z" fill="#F6F5E9"/>
<path d="M2.53867 469.12C5.03025 469.12 7.5332 469.12 10.2383 469.12C10.186 483.675 10.0271 497.937 10.1815 512.232C7.47641 511.77 4.95757 511.364 2.52277 511.728C1.69375 497.544 2.75444 483.236 2.53867 469.12ZM2.82257 499.452C3.90597 499.647 4.99618 499.634 6.13863 499.53C6.13863 497.664 6.13863 495.974 6.13863 494.12C4.98255 494.228 3.9037 494.143 2.82257 494.732C2.82257 496.227 2.82257 497.674 2.82257 499.452ZM2.98838 482.69C2.98838 484.205 2.98838 485.639 2.98838 487.212C4.05588 487.137 5.09385 487.069 6.20677 486.991C6.15908 485.398 6.30898 483.909 6.08412 482.388C5.05978 482.105 4.1013 482.384 2.98838 482.69ZM9.57507 481.389C9.57507 479.66 9.57507 478.067 9.57507 476.441C8.59842 475.954 7.68083 476.113 6.64286 476.217C6.72008 477.992 6.79503 479.676 6.87225 481.445C7.79439 481.419 8.63703 481.728 9.57507 481.389ZM5.93876 475.261C6.19542 473.359 6.01371 471.685 5.89788 469.969C4.88262 469.917 3.99682 469.735 3.08604 470.092C3.26774 471.857 3.02472 473.587 3.32907 475.258C4.21032 475.261 5.02798 475.261 5.93876 475.261ZM9.5092 493.272C9.5092 491.516 9.5092 489.878 9.5092 488.213C8.61432 487.973 7.81029 487.862 6.97673 487.957C6.97673 489.839 6.97673 491.578 6.97673 493.337C7.8489 493.493 8.63022 493.587 9.5092 493.272ZM9.38201 500.584C8.52574 500.532 7.73079 500.203 6.979 500.551C6.979 502.459 6.979 504.264 6.979 506.068C7.82392 506.068 8.56208 506.068 9.38201 506.068C9.38201 504.195 9.38201 502.45 9.38201 500.584ZM6.18179 507.082C5.11429 507.339 4.1331 507.167 3.14282 507.661C3.0338 508.643 3.0338 509.582 3.1292 510.561C4.06269 510.971 4.97574 511.068 5.9274 510.818C6.16816 509.634 6.2522 508.487 6.18179 507.082Z" fill="#F6F5E9"/>
<path d="M0.634929 472.658C0.246541 474.261 0.466853 475.678 0.405528 477.024C0.0875497 484.102 -0.191815 491.199 0.326035 498.273C0.700795 503.4 0.868869 508.52 0.755305 513.666C0.741677 514.326 0.698524 514.983 0.653098 516.023C1.33902 515.12 1.23681 514.294 1.24817 513.549C1.32994 508.24 1.12779 502.948 0.875683 497.652C0.503194 489.862 0.675811 482.076 1.15051 474.303C1.18458 473.718 1.19139 473.718 0.634929 472.658Z" fill="#F6F5E9"/>
<path d="M11.5147 471.381C12.0734 485.734 12.1665 499.954 11.7009 514.294C11.0241 513.953 11.174 513.199 11.1876 512.552C11.2989 507.792 11.4715 503.036 11.5215 498.277C11.5896 491.732 11.3761 485.191 11.2239 478.65C11.1785 476.703 11.1899 474.755 11.199 472.808C11.2035 472.369 11.074 471.852 11.5147 471.381Z" fill="#F6F5E9"/>
<path d="M2.53867 541.446C5.03025 541.446 7.5332 541.446 10.2383 541.446C10.186 556.001 10.0271 570.263 10.1815 584.558C7.47641 584.096 4.95757 583.69 2.52277 584.054C1.69375 569.87 2.75444 555.562 2.53867 541.446ZM2.82257 571.778C3.90597 571.973 4.99618 571.96 6.13863 571.856C6.13863 569.99 6.13863 568.3 6.13863 566.447C4.98255 566.554 3.9037 566.469 2.82257 567.058C2.82257 568.553 2.82257 570 2.82257 571.778ZM2.98838 555.016C2.98838 556.531 2.98838 557.965 2.98838 559.538C4.05588 559.463 5.09385 559.395 6.20677 559.317C6.15908 557.724 6.30898 556.235 6.08412 554.714C5.05978 554.431 4.1013 554.71 2.98838 555.016ZM9.57507 553.716C9.57507 551.986 9.57507 550.393 9.57507 548.768C8.59842 548.28 7.68083 548.439 6.64286 548.543C6.72008 550.318 6.79503 552.002 6.87225 553.771C7.79439 553.745 8.63703 554.054 9.57507 553.716ZM5.93876 547.587C6.19542 545.686 6.01371 544.011 5.89788 542.295C4.88262 542.243 3.99682 542.061 3.08604 542.418C3.26774 544.184 3.02472 545.913 3.32907 547.584C4.21032 547.587 5.02798 547.587 5.93876 547.587ZM9.5092 565.598C9.5092 563.843 9.5092 562.204 9.5092 560.54C8.61432 560.299 7.81029 560.188 6.97673 560.283C6.97673 562.165 6.97673 563.904 6.97673 565.663C7.8489 565.819 8.63022 565.913 9.5092 565.598ZM9.38201 572.91C8.52574 572.858 7.73079 572.529 6.979 572.877C6.979 574.786 6.979 576.59 6.979 578.394C7.82392 578.394 8.56208 578.394 9.38201 578.394C9.38201 576.522 9.38201 574.776 9.38201 572.91ZM6.18179 579.408C5.11429 579.665 4.1331 579.493 3.14282 579.987C3.0338 580.969 3.0338 581.909 3.1292 582.887C4.06269 583.297 4.97574 583.394 5.9274 583.144C6.16816 581.961 6.2522 580.813 6.18179 579.408Z" fill="#F6F5E9"/>
<path d="M0.634929 544.984C0.246541 546.587 0.466853 548.004 0.405528 549.35C0.0875497 556.428 -0.191815 563.525 0.326035 570.599C0.700795 575.726 0.868869 580.846 0.755305 585.993C0.741677 586.653 0.698524 587.309 0.653098 588.35C1.33902 587.446 1.23681 586.62 1.24817 585.876C1.32994 580.567 1.12779 575.274 0.875683 569.978C0.503194 562.189 0.675811 554.402 1.15051 546.629C1.18458 546.044 1.19139 546.044 0.634929 544.984Z" fill="#F6F5E9"/>
<path d="M11.5147 543.707C12.0734 558.06 12.1665 572.28 11.7009 586.621C11.0241 586.279 11.174 585.525 11.1876 584.878C11.2989 580.118 11.4715 575.362 11.5215 570.603C11.5896 564.058 11.3761 557.517 11.2239 550.976C11.1785 549.029 11.1899 547.082 11.199 545.134C11.2035 544.695 11.074 544.178 11.5147 543.707Z" fill="#F6F5E9"/>
<path d="M2.53867 577.37C5.03025 577.37 7.5332 577.37 10.2383 577.37C10.186 591.925 10.0271 606.187 10.1815 620.482C7.47641 620.02 4.95757 619.614 2.52277 619.978C1.69375 605.794 2.75444 591.486 2.53867 577.37ZM2.82257 607.702C3.90597 607.897 4.99618 607.884 6.13863 607.78C6.13863 605.914 6.13863 604.224 6.13863 602.37C4.98255 602.478 3.9037 602.393 2.82257 602.982C2.82257 604.477 2.82257 605.924 2.82257 607.702ZM2.98838 590.94C2.98838 592.455 2.98838 593.889 2.98838 595.462C4.05588 595.387 5.09385 595.319 6.20677 595.241C6.15908 593.648 6.30898 592.159 6.08412 590.638C5.05978 590.355 4.1013 590.634 2.98838 590.94ZM9.57507 589.639C9.57507 587.91 9.57507 586.317 9.57507 584.691C8.59842 584.204 7.68083 584.363 6.64286 584.467C6.72008 586.242 6.79503 587.926 6.87225 589.695C7.79439 589.669 8.63703 589.978 9.57507 589.639ZM5.93876 583.511C6.19542 581.609 6.01371 579.935 5.89788 578.219C4.88262 578.167 3.99682 577.985 3.08604 578.342C3.26774 580.107 3.02472 581.837 3.32907 583.508C4.21032 583.511 5.02798 583.511 5.93876 583.511ZM9.5092 601.522C9.5092 599.766 9.5092 598.128 9.5092 596.463C8.61432 596.223 7.81029 596.112 6.97673 596.207C6.97673 598.089 6.97673 599.828 6.97673 601.587C7.8489 601.743 8.63022 601.837 9.5092 601.522ZM9.38201 608.834C8.52574 608.782 7.73079 608.453 6.979 608.801C6.979 610.709 6.979 612.514 6.979 614.318C7.82392 614.318 8.56208 614.318 9.38201 614.318C9.38201 612.445 9.38201 610.7 9.38201 608.834ZM6.18179 615.332C5.11429 615.589 4.1331 615.417 3.14282 615.911C3.0338 616.893 3.0338 617.832 3.1292 618.811C4.06269 619.221 4.97574 619.318 5.9274 619.068C6.16816 617.884 6.2522 616.737 6.18179 615.332Z" fill="#F6F5E9"/>
<path d="M0.634926 620.335C0.246539 618.732 0.46685 617.315 0.405526 615.969C0.0875478 608.892 -0.191816 601.795 0.326034 594.72C0.700794 589.593 0.868868 584.473 0.755305 579.327C0.741677 578.667 0.698524 578.01 0.653098 576.97C1.33902 577.874 1.23681 578.699 1.24817 579.444C1.32994 584.753 1.12779 590.045 0.875682 595.341C0.503193 603.131 0.675809 610.917 1.1505 618.69C1.18457 619.275 1.19139 619.275 0.634926 620.335Z" fill="#F6F5E9"/>
<path d="M11.5147 578.196C12.0734 592.55 12.1665 606.77 11.7009 621.11C11.0241 620.768 11.174 620.014 11.1876 619.367C11.2989 614.608 11.4715 609.852 11.5215 605.092C11.5896 598.548 11.3761 592.007 11.2239 585.466C11.1785 583.518 11.1899 581.571 11.199 579.623C11.2035 579.185 11.074 578.668 11.5147 578.196Z" fill="#F6F5E9"/>
<path d="M2.53867 649.696C5.03025 649.696 7.5332 649.696 10.2383 649.696C10.186 664.251 10.0271 678.513 10.1815 692.808C7.47641 692.346 4.95757 691.94 2.52277 692.304C1.69375 678.12 2.75444 663.812 2.53867 649.696ZM2.82257 680.028C3.90597 680.223 4.99618 680.21 6.13863 680.106C6.13863 678.24 6.13863 676.55 6.13863 674.697C4.98255 674.804 3.9037 674.719 2.82257 675.308C2.82257 676.803 2.82257 678.25 2.82257 680.028ZM2.98838 663.266C2.98838 664.781 2.98838 666.215 2.98838 667.788C4.05588 667.713 5.09385 667.645 6.20677 667.567C6.15908 665.974 6.30898 664.485 6.08412 662.964C5.05978 662.681 4.1013 662.96 2.98838 663.266ZM9.57507 661.966C9.57507 660.236 9.57507 658.643 9.57507 657.018C8.59842 656.53 7.68083 656.689 6.64286 656.793C6.72008 658.568 6.79503 660.252 6.87225 662.021C7.79439 661.995 8.63703 662.304 9.57507 661.966ZM5.93876 655.837C6.19542 653.936 6.01371 652.261 5.89788 650.545C4.88262 650.493 3.99682 650.311 3.08604 650.668C3.26774 652.434 3.02472 654.163 3.32907 655.834C4.21032 655.837 5.02798 655.837 5.93876 655.837ZM9.5092 673.848C9.5092 672.093 9.5092 670.454 9.5092 668.79C8.61432 668.549 7.81029 668.438 6.97673 668.533C6.97673 670.415 6.97673 672.154 6.97673 673.913C7.8489 674.069 8.63022 674.163 9.5092 673.848ZM9.38201 681.16C8.52574 681.108 7.73079 680.779 6.979 681.127C6.979 683.036 6.979 684.84 6.979 686.644C7.82392 686.644 8.56208 686.644 9.38201 686.644C9.38201 684.772 9.38201 683.026 9.38201 681.16ZM6.18179 687.658C5.11429 687.915 4.1331 687.743 3.14282 688.237C3.0338 689.219 3.0338 690.159 3.1292 691.137C4.06269 691.547 4.97574 691.644 5.9274 691.394C6.16816 690.211 6.2522 689.063 6.18179 687.658Z" fill="#F6F5E9"/>
<path d="M0.634926 692.661C0.246539 691.059 0.46685 689.641 0.405526 688.295C0.0875478 681.218 -0.191816 674.121 0.326034 667.046C0.700794 661.92 0.868868 656.799 0.755305 651.653C0.741677 650.993 0.698524 650.336 0.653098 649.296C1.33902 650.2 1.23681 651.025 1.24817 651.77C1.32994 657.079 1.12779 662.372 0.875682 667.667C0.503193 675.457 0.675809 683.243 1.1505 691.016C1.18457 691.601 1.19139 691.601 0.634926 692.661Z" fill="#F6F5E9"/>
<path d="M11.5147 650.522C12.0734 664.876 12.1665 679.096 11.7009 693.436C11.0241 693.095 11.174 692.34 11.1876 691.693C11.2989 686.934 11.4715 682.178 11.5215 677.418C11.5896 670.874 11.3761 664.333 11.2239 657.792C11.1785 655.844 11.1899 653.897 11.199 651.95C11.2035 651.511 11.074 650.994 11.5147 650.522Z" fill="#F6F5E9"/>
<path d="M2.53867 613.474C5.03025 613.474 7.5332 613.474 10.2383 613.474C10.186 628.028 10.0271 642.291 10.1815 656.585C7.47641 656.124 4.95757 655.717 2.52277 656.082C1.69375 641.897 2.75444 627.59 2.53867 613.474ZM2.82257 643.806C3.90597 644.001 4.99618 643.988 6.13863 643.884C6.13863 642.018 6.13863 640.327 6.13863 638.474C4.98255 638.581 3.9037 638.497 2.82257 639.085C2.82257 640.581 2.82257 642.027 2.82257 643.806ZM2.98838 627.043C2.98838 628.558 2.98838 629.992 2.98838 631.566C4.05588 631.491 5.09385 631.423 6.20677 631.345C6.15908 629.752 6.30898 628.263 6.08412 626.741C5.05978 626.458 4.1013 626.738 2.98838 627.043ZM9.57507 625.743C9.57507 624.013 9.57507 622.42 9.57507 620.795C8.59842 620.307 7.68083 620.467 6.64286 620.571C6.72008 622.346 6.79503 624.03 6.87225 625.798C7.79439 625.772 8.63703 626.081 9.57507 625.743ZM5.93876 619.615C6.19542 617.713 6.01371 616.039 5.89788 614.322C4.88262 614.27 3.99682 614.088 3.08604 614.446C3.26774 616.211 3.02472 617.941 3.32907 619.612C4.21032 619.615 5.02798 619.615 5.93876 619.615ZM9.5092 637.625C9.5092 635.87 9.5092 634.231 9.5092 632.567C8.61432 632.326 7.81029 632.216 6.97673 632.31C6.97673 634.192 6.97673 635.932 6.97673 637.691C7.8489 637.847 8.63022 637.941 9.5092 637.625ZM9.38201 644.937C8.52574 644.885 7.73079 644.557 6.979 644.905C6.979 646.813 6.979 648.617 6.979 650.422C7.82392 650.422 8.56208 650.422 9.38201 650.422C9.38201 648.549 9.38201 646.803 9.38201 644.937ZM6.18179 651.436C5.11429 651.693 4.1331 651.52 3.14282 652.015C3.0338 652.996 3.0338 653.936 3.1292 654.914C4.06269 655.324 4.97574 655.422 5.9274 655.171C6.16816 653.988 6.2522 652.84 6.18179 651.436Z" fill="#F6F5E9"/>
<path d="M0.634929 617.012C0.246541 618.614 0.466853 620.032 0.405528 621.378C0.0875497 628.455 -0.191815 635.552 0.326035 642.626C0.700795 647.753 0.868869 652.874 0.755305 658.02C0.741677 658.68 0.698524 659.337 0.653098 660.377C1.33902 659.473 1.23681 658.647 1.24817 657.903C1.32994 652.594 1.12779 647.301 0.875683 642.005C0.503194 634.216 0.675811 626.43 1.15051 618.657C1.18458 618.071 1.19139 618.071 0.634929 617.012Z" fill="#F6F5E9"/>
<path d="M11.5147 615.734C12.0734 630.088 12.1665 644.308 11.7009 658.648C11.0241 658.307 11.174 657.552 11.1876 656.905C11.2989 652.146 11.4715 647.39 11.5215 642.63C11.5896 636.086 11.3761 629.545 11.2239 623.004C11.1785 621.056 11.1899 619.109 11.199 617.162C11.2035 616.723 11.074 616.206 11.5147 615.734Z" fill="#F6F5E9"/>
<path d="M2.53867 685.8C5.03025 685.8 7.5332 685.8 10.2383 685.8C10.186 700.355 10.0271 714.617 10.1815 728.912C7.47641 728.45 4.95757 728.044 2.52277 728.408C1.69375 714.224 2.75444 699.916 2.53867 685.8ZM2.82257 716.132C3.90597 716.327 4.99618 716.314 6.13863 716.21C6.13863 714.344 6.13863 712.653 6.13863 710.8C4.98255 710.907 3.9037 710.823 2.82257 711.411C2.82257 712.907 2.82257 714.354 2.82257 716.132ZM2.98838 699.37C2.98838 700.885 2.98838 702.318 2.98838 703.892C4.05588 703.817 5.09385 703.749 6.20677 703.671C6.15908 702.078 6.30898 700.589 6.08412 699.067C5.05978 698.784 4.1013 699.064 2.98838 699.37ZM9.57507 698.069C9.57507 696.34 9.57507 694.747 9.57507 693.121C8.59842 692.633 7.68083 692.793 6.64286 692.897C6.72008 694.672 6.79503 696.356 6.87225 698.124C7.79439 698.098 8.63703 698.407 9.57507 698.069ZM5.93876 691.941C6.19542 690.039 6.01371 688.365 5.89788 686.648C4.88262 686.596 3.99682 686.414 3.08604 686.772C3.26774 688.537 3.02472 690.267 3.32907 691.938C4.21032 691.941 5.02798 691.941 5.93876 691.941ZM9.5092 709.952C9.5092 708.196 9.5092 706.558 9.5092 704.893C8.61432 704.652 7.81029 704.542 6.97673 704.636C6.97673 706.519 6.97673 708.258 6.97673 710.017C7.8489 710.173 8.63022 710.267 9.5092 709.952ZM9.38201 717.263C8.52574 717.211 7.73079 716.883 6.979 717.231C6.979 719.139 6.979 720.943 6.979 722.748C7.82392 722.748 8.56208 722.748 9.38201 722.748C9.38201 720.875 9.38201 719.129 9.38201 717.263ZM6.18179 723.762C5.11429 724.019 4.1331 723.847 3.14282 724.341C3.0338 725.322 3.0338 726.262 3.1292 727.241C4.06269 727.65 4.97574 727.748 5.9274 727.497C6.16816 726.314 6.2522 725.166 6.18179 723.762Z" fill="#F6F5E9"/>
<path d="M0.634929 689.338C0.246541 690.94 0.466853 692.358 0.405528 693.704C0.0875497 700.781 -0.191815 707.878 0.326035 714.953C0.700795 720.079 0.868869 725.2 0.755305 730.346C0.741677 731.006 0.698524 731.663 0.653098 732.703C1.33902 731.799 1.23681 730.974 1.24817 730.229C1.32994 724.92 1.12779 719.628 0.875683 714.332C0.503194 706.542 0.675811 698.756 1.15051 690.983C1.18458 690.398 1.19139 690.398 0.634929 689.338Z" fill="#F6F5E9"/>
<path d="M11.5147 688.061C12.0734 702.414 12.1665 716.634 11.7009 730.974C11.0241 730.633 11.174 729.878 11.1876 729.232C11.2989 724.472 11.4715 719.716 11.5215 714.956C11.5896 708.412 11.3761 701.871 11.2239 695.33C11.1785 693.382 11.1899 691.435 11.199 689.488C11.2035 689.049 11.074 688.532 11.5147 688.061Z" fill="#F6F5E9"/>
<path d="M2.53867 577.37C5.03025 577.37 7.5332 577.37 10.2383 577.37C10.186 591.925 10.0271 606.187 10.1815 620.482C7.47641 620.02 4.95757 619.614 2.52277 619.978C1.69375 605.794 2.75444 591.486 2.53867 577.37ZM2.82257 607.702C3.90597 607.897 4.99618 607.884 6.13863 607.78C6.13863 605.914 6.13863 604.224 6.13863 602.37C4.98255 602.478 3.9037 602.393 2.82257 602.982C2.82257 604.477 2.82257 605.924 2.82257 607.702ZM2.98838 590.94C2.98838 592.455 2.98838 593.889 2.98838 595.462C4.05588 595.387 5.09385 595.319 6.20677 595.241C6.15908 593.648 6.30898 592.159 6.08412 590.638C5.05978 590.355 4.1013 590.634 2.98838 590.94ZM9.57507 589.639C9.57507 587.91 9.57507 586.317 9.57507 584.691C8.59842 584.204 7.68083 584.363 6.64286 584.467C6.72008 586.242 6.79503 587.926 6.87225 589.695C7.79439 589.669 8.63703 589.978 9.57507 589.639ZM5.93876 583.511C6.19542 581.609 6.01371 579.935 5.89788 578.219C4.88262 578.167 3.99682 577.985 3.08604 578.342C3.26774 580.107 3.02472 581.837 3.32907 583.508C4.21032 583.511 5.02798 583.511 5.93876 583.511ZM9.5092 601.522C9.5092 599.766 9.5092 598.128 9.5092 596.463C8.61432 596.223 7.81029 596.112 6.97673 596.207C6.97673 598.089 6.97673 599.828 6.97673 601.587C7.8489 601.743 8.63022 601.837 9.5092 601.522ZM9.38201 608.834C8.52574 608.782 7.73079 608.453 6.979 608.801C6.979 610.709 6.979 612.514 6.979 614.318C7.82392 614.318 8.56208 614.318 9.38201 614.318C9.38201 612.445 9.38201 610.7 9.38201 608.834ZM6.18179 615.332C5.11429 615.589 4.1331 615.417 3.14282 615.911C3.0338 616.893 3.0338 617.832 3.1292 618.811C4.06269 619.221 4.97574 619.318 5.9274 619.068C6.16816 617.884 6.2522 616.737 6.18179 615.332Z" fill="#F6F5E9"/>
<path d="M0.634926 620.335C0.246539 618.732 0.46685 617.315 0.405526 615.969C0.0875478 608.892 -0.191816 601.795 0.326034 594.72C0.700794 589.593 0.868868 584.473 0.755305 579.327C0.741677 578.667 0.698524 578.01 0.653098 576.97C1.33902 577.874 1.23681 578.699 1.24817 579.444C1.32994 584.753 1.12779 590.045 0.875682 595.341C0.503193 603.131 0.675809 610.917 1.1505 618.69C1.18457 619.275 1.19139 619.275 0.634926 620.335Z" fill="#F6F5E9"/>
<path d="M11.5147 578.196C12.0734 592.55 12.1665 606.77 11.7009 621.11C11.0241 620.768 11.174 620.014 11.1876 619.367C11.2989 614.608 11.4715 609.852 11.5215 605.092C11.5896 598.548 11.3761 592.007 11.2239 585.466C11.1785 583.518 11.1899 581.571 11.199 579.623C11.2035 579.185 11.074 578.668 11.5147 578.196Z" fill="#F6F5E9"/>
<path d="M2.53867 649.696C5.03025 649.696 7.5332 649.696 10.2383 649.696C10.186 664.251 10.0271 678.513 10.1815 692.808C7.47641 692.346 4.95757 691.94 2.52277 692.304C1.69375 678.12 2.75444 663.812 2.53867 649.696ZM2.82257 680.028C3.90597 680.223 4.99618 680.21 6.13863 680.106C6.13863 678.24 6.13863 676.55 6.13863 674.697C4.98255 674.804 3.9037 674.719 2.82257 675.308C2.82257 676.803 2.82257 678.25 2.82257 680.028ZM2.98838 663.266C2.98838 664.781 2.98838 666.215 2.98838 667.788C4.05588 667.713 5.09385 667.645 6.20677 667.567C6.15908 665.974 6.30898 664.485 6.08412 662.964C5.05978 662.681 4.1013 662.96 2.98838 663.266ZM9.57507 661.966C9.57507 660.236 9.57507 658.643 9.57507 657.018C8.59842 656.53 7.68083 656.689 6.64286 656.793C6.72008 658.568 6.79503 660.252 6.87225 662.021C7.79439 661.995 8.63703 662.304 9.57507 661.966ZM5.93876 655.837C6.19542 653.936 6.01371 652.261 5.89788 650.545C4.88262 650.493 3.99682 650.311 3.08604 650.668C3.26774 652.434 3.02472 654.163 3.32907 655.834C4.21032 655.837 5.02798 655.837 5.93876 655.837ZM9.5092 673.848C9.5092 672.093 9.5092 670.454 9.5092 668.79C8.61432 668.549 7.81029 668.438 6.97673 668.533C6.97673 670.415 6.97673 672.154 6.97673 673.913C7.8489 674.069 8.63022 674.163 9.5092 673.848ZM9.38201 681.16C8.52574 681.108 7.73079 680.779 6.979 681.127C6.979 683.036 6.979 684.84 6.979 686.644C7.82392 686.644 8.56208 686.644 9.38201 686.644C9.38201 684.772 9.38201 683.026 9.38201 681.16ZM6.18179 687.658C5.11429 687.915 4.1331 687.743 3.14282 688.237C3.0338 689.219 3.0338 690.159 3.1292 691.137C4.06269 691.547 4.97574 691.644 5.9274 691.394C6.16816 690.211 6.2522 689.063 6.18179 687.658Z" fill="#F6F5E9"/>
<path d="M0.634926 692.661C0.246539 691.059 0.46685 689.641 0.405526 688.295C0.0875478 681.218 -0.191816 674.121 0.326034 667.046C0.700794 661.92 0.868868 656.799 0.755305 651.653C0.741677 650.993 0.698524 650.336 0.653098 649.296C1.33902 650.2 1.23681 651.025 1.24817 651.77C1.32994 657.079 1.12779 662.372 0.875682 667.667C0.503193 675.457 0.675809 683.243 1.1505 691.016C1.18457 691.601 1.19139 691.601 0.634926 692.661Z" fill="#F6F5E9"/>
<path d="M11.5147 650.522C12.0734 664.876 12.1665 679.096 11.7009 693.436C11.0241 693.095 11.174 692.34 11.1876 691.693C11.2989 686.934 11.4715 682.178 11.5215 677.418C11.5896 670.874 11.3761 664.333 11.2239 657.792C11.1785 655.844 11.1899 653.897 11.199 651.95C11.2035 651.511 11.074 650.994 11.5147 650.522Z" fill="#F6F5E9"/>
<path d="M2.53867 613.475C5.03025 613.475 7.5332 613.475 10.2383 613.475C10.186 628.029 10.0271 642.292 10.1815 656.586C7.47641 656.125 4.95757 655.718 2.52277 656.083C1.69375 641.898 2.75444 627.591 2.53867 613.475ZM2.82257 643.807C3.90597 644.002 4.99618 643.989 6.13863 643.885C6.13863 642.019 6.13863 640.328 6.13863 638.475C4.98255 638.582 3.9037 638.498 2.82257 639.086C2.82257 640.582 2.82257 642.028 2.82257 643.807ZM2.98838 627.044C2.98838 628.559 2.98838 629.993 2.98838 631.567C4.05588 631.492 5.09385 631.424 6.20677 631.345C6.15908 629.752 6.30898 628.264 6.08412 626.742C5.05978 626.459 4.1013 626.739 2.98838 627.044ZM9.57507 625.744C9.57507 624.014 9.57507 622.421 9.57507 620.796C8.59842 620.308 7.68083 620.468 6.64286 620.572C6.72008 622.347 6.79503 624.031 6.87225 625.799C7.79439 625.773 8.63703 626.082 9.57507 625.744ZM5.93876 619.616C6.19542 617.714 6.01371 616.04 5.89788 614.323C4.88262 614.271 3.99682 614.089 3.08604 614.447C3.26774 616.212 3.02472 617.942 3.32907 619.613C4.21032 619.616 5.02798 619.616 5.93876 619.616ZM9.5092 637.626C9.5092 635.871 9.5092 634.232 9.5092 632.568C8.61432 632.327 7.81029 632.217 6.97673 632.311C6.97673 634.193 6.97673 635.933 6.97673 637.691C7.8489 637.848 8.63022 637.942 9.5092 637.626ZM9.38201 644.938C8.52574 644.886 7.73079 644.558 6.979 644.906C6.979 646.814 6.979 648.618 6.979 650.423C7.82392 650.423 8.56208 650.423 9.38201 650.423C9.38201 648.55 9.38201 646.804 9.38201 644.938ZM6.18179 651.437C5.11429 651.694 4.1331 651.521 3.14282 652.015C3.0338 652.997 3.0338 653.937 3.1292 654.915C4.06269 655.325 4.97574 655.423 5.9274 655.172C6.16816 653.989 6.2522 652.841 6.18179 651.437Z" fill="#F6F5E9"/>
<path d="M0.634929 617.013C0.246541 618.615 0.466853 620.033 0.405528 621.379C0.0875497 628.456 -0.191815 635.553 0.326035 642.627C0.700795 647.754 0.868869 652.875 0.755305 658.021C0.741677 658.681 0.698524 659.338 0.653098 660.378C1.33902 659.474 1.23681 658.648 1.24817 657.904C1.32994 652.595 1.12779 647.302 0.875683 642.006C0.503194 634.217 0.675811 626.431 1.15051 618.658C1.18458 618.072 1.19139 618.072 0.634929 617.013Z" fill="#F6F5E9"/>
<path d="M11.5147 615.735C12.0734 630.089 12.1665 644.309 11.7009 658.649C11.0241 658.308 11.174 657.553 11.1876 656.906C11.2989 652.147 11.4715 647.391 11.5215 642.631C11.5896 636.087 11.3761 629.546 11.2239 623.005C11.1785 621.057 11.1899 619.11 11.199 617.163C11.2035 616.724 11.074 616.207 11.5147 615.735Z" fill="#F6F5E9"/>
<path d="M2.53867 685.8C5.03025 685.8 7.5332 685.8 10.2383 685.8C10.186 700.355 10.0271 714.617 10.1815 728.912C7.47641 728.45 4.95757 728.044 2.52277 728.408C1.69375 714.224 2.75444 699.916 2.53867 685.8ZM2.82257 716.132C3.90597 716.327 4.99618 716.314 6.13863 716.21C6.13863 714.344 6.13863 712.653 6.13863 710.8C4.98255 710.907 3.9037 710.823 2.82257 711.411C2.82257 712.907 2.82257 714.354 2.82257 716.132ZM2.98838 699.37C2.98838 700.885 2.98838 702.318 2.98838 703.892C4.05588 703.817 5.09385 703.749 6.20677 703.671C6.15908 702.078 6.30898 700.589 6.08412 699.067C5.05978 698.784 4.1013 699.064 2.98838 699.37ZM9.57507 698.069C9.57507 696.34 9.57507 694.747 9.57507 693.121C8.59842 692.633 7.68083 692.793 6.64286 692.897C6.72008 694.672 6.79503 696.356 6.87225 698.124C7.79439 698.098 8.63703 698.407 9.57507 698.069ZM5.93876 691.941C6.19542 690.039 6.01371 688.365 5.89788 686.648C4.88262 686.596 3.99682 686.414 3.08604 686.772C3.26774 688.537 3.02472 690.267 3.32907 691.938C4.21032 691.941 5.02798 691.941 5.93876 691.941ZM9.5092 709.952C9.5092 708.196 9.5092 706.558 9.5092 704.893C8.61432 704.652 7.81029 704.542 6.97673 704.636C6.97673 706.519 6.97673 708.258 6.97673 710.017C7.8489 710.173 8.63022 710.267 9.5092 709.952ZM9.38201 717.263C8.52574 717.211 7.73079 716.883 6.979 717.231C6.979 719.139 6.979 720.943 6.979 722.748C7.82392 722.748 8.56208 722.748 9.38201 722.748C9.38201 720.875 9.38201 719.129 9.38201 717.263ZM6.18179 723.762C5.11429 724.019 4.1331 723.847 3.14282 724.341C3.0338 725.322 3.0338 726.262 3.1292 727.241C4.06269 727.65 4.97574 727.748 5.9274 727.497C6.16816 726.314 6.2522 725.166 6.18179 723.762Z" fill="#F6F5E9"/>
<path d="M0.634929 689.338C0.246541 690.94 0.466853 692.358 0.405528 693.704C0.0875497 700.781 -0.191815 707.878 0.326035 714.953C0.700795 720.079 0.868869 725.2 0.755305 730.346C0.741677 731.006 0.698524 731.663 0.653098 732.703C1.33902 731.799 1.23681 730.974 1.24817 730.229C1.32994 724.92 1.12779 719.628 0.875683 714.332C0.503194 706.542 0.675811 698.756 1.15051 690.983C1.18458 690.398 1.19139 690.398 0.634929 689.338Z" fill="#F6F5E9"/>
<path d="M11.5147 688.061C12.0734 702.414 12.1665 716.634 11.7009 730.974C11.0241 730.633 11.174 729.878 11.1876 729.232C11.2989 724.472 11.4715 719.716 11.5215 714.956C11.5896 708.412 11.3761 701.871 11.2239 695.33C11.1785 693.382 11.1899 691.435 11.199 689.488C11.2035 689.049 11.074 688.532 11.5147 688.061Z" fill="#F6F5E9"/>
<path d="M2.53867 721.147C5.03025 721.147 7.5332 721.147 10.2383 721.147C10.186 735.702 10.0271 749.965 10.1815 764.259C7.47641 763.798 4.95757 763.391 2.52277 763.755C1.69375 749.571 2.75444 735.263 2.53867 721.147ZM2.82257 751.48C3.90597 751.675 4.99618 751.662 6.13863 751.558C6.13863 749.691 6.13863 748.001 6.13863 746.148C4.98255 746.255 3.9037 746.171 2.82257 746.759C2.82257 748.255 2.82257 749.701 2.82257 751.48ZM2.98838 734.717C2.98838 736.232 2.98838 737.666 2.98838 739.239C4.05588 739.165 5.09385 739.096 6.20677 739.018C6.15908 737.425 6.30898 735.936 6.08412 734.415C5.05978 734.132 4.1013 734.412 2.98838 734.717ZM9.57507 733.417C9.57507 731.687 9.57507 730.094 9.57507 728.469C8.59842 727.981 7.68083 728.14 6.64286 728.244C6.72008 730.02 6.79503 731.704 6.87225 733.472C7.79439 733.446 8.63703 733.755 9.57507 733.417ZM5.93876 727.289C6.19542 725.387 6.01371 723.713 5.89788 721.996C4.88262 721.944 3.99682 721.762 3.08604 722.12C3.26774 723.885 3.02472 725.614 3.32907 727.285C4.21032 727.289 5.02798 727.289 5.93876 727.289ZM9.5092 745.299C9.5092 743.544 9.5092 741.905 9.5092 740.241C8.61432 740 7.81029 739.89 6.97673 739.984C6.97673 741.866 6.97673 743.606 6.97673 745.364C7.8489 745.52 8.63022 745.615 9.5092 745.299ZM9.38201 752.611C8.52574 752.559 7.73079 752.23 6.979 752.578C6.979 754.487 6.979 756.291 6.979 758.095C7.82392 758.095 8.56208 758.095 9.38201 758.095C9.38201 756.223 9.38201 754.477 9.38201 752.611ZM6.18179 759.11C5.11429 759.367 4.1331 759.194 3.14282 759.688C3.0338 760.67 3.0338 761.61 3.1292 762.588C4.06269 762.998 4.97574 763.095 5.9274 762.845C6.16816 761.662 6.2522 760.514 6.18179 759.11Z" fill="#F6F5E9"/>
<path d="M0.634926 764.112C0.246539 762.51 0.46685 761.092 0.405526 759.746C0.0875478 752.669 -0.191816 745.572 0.326034 738.498C0.700794 733.371 0.868868 728.25 0.755305 723.104C0.741677 722.444 0.698524 721.787 0.653098 720.747C1.33902 721.651 1.23681 722.477 1.24817 723.221C1.32994 728.53 1.12779 733.823 0.875682 739.119C0.503193 746.908 0.675809 754.694 1.1505 762.467C1.18457 763.053 1.19139 763.053 0.634926 764.112Z" fill="#F6F5E9"/>
<path d="M11.5147 721.974C12.0734 736.327 12.1665 750.547 11.7009 764.887C11.0241 764.546 11.174 763.792 11.1876 763.145C11.2989 758.385 11.4715 753.629 11.5215 748.869C11.5896 742.325 11.3761 735.784 11.2239 729.243C11.1785 727.296 11.1899 725.348 11.199 723.401C11.2035 722.962 11.074 722.445 11.5147 721.974Z" fill="#F6F5E9"/>
<path d="M2.53867 756.761C5.03025 756.761 7.5332 756.761 10.2383 756.761C10.186 771.316 10.0271 785.578 10.1815 799.873C7.47641 799.411 4.95757 799.005 2.52277 799.369C1.69375 785.184 2.75444 770.877 2.53867 756.761ZM2.82257 787.093C3.90597 787.288 4.99618 787.275 6.13863 787.171C6.13863 785.305 6.13863 783.614 6.13863 781.761C4.98255 781.868 3.9037 781.784 2.82257 782.372C2.82257 783.868 2.82257 785.314 2.82257 787.093ZM2.98838 770.331C2.98838 771.845 2.98838 773.279 2.98838 774.853C4.05588 774.778 5.09385 774.71 6.20677 774.632C6.15908 773.039 6.30898 771.55 6.08412 770.028C5.05978 769.745 4.1013 770.025 2.98838 770.331ZM9.57507 769.03C9.57507 767.301 9.57507 765.708 9.57507 764.082C8.59842 763.594 7.68083 763.754 6.64286 763.858C6.72008 765.633 6.79503 767.317 6.87225 769.085C7.79439 769.059 8.63703 769.368 9.57507 769.03ZM5.93876 762.902C6.19542 761 6.01371 759.326 5.89788 757.609C4.88262 757.557 3.99682 757.375 3.08604 757.733C3.26774 759.498 3.02472 761.228 3.32907 762.899C4.21032 762.902 5.02798 762.902 5.93876 762.902ZM9.5092 780.913C9.5092 779.157 9.5092 777.519 9.5092 775.854C8.61432 775.613 7.81029 775.503 6.97673 775.597C6.97673 777.48 6.97673 779.219 6.97673 780.978C7.8489 781.134 8.63022 781.228 9.5092 780.913ZM9.38201 788.224C8.52574 788.172 7.73079 787.844 6.979 788.192C6.979 790.1 6.979 791.904 6.979 793.709C7.82392 793.709 8.56208 793.709 9.38201 793.709C9.38201 791.836 9.38201 790.09 9.38201 788.224ZM6.18179 794.723C5.11429 794.98 4.1331 794.807 3.14282 795.302C3.0338 796.283 3.0338 797.223 3.1292 798.202C4.06269 798.611 4.97574 798.709 5.9274 798.458C6.16816 797.275 6.2522 796.127 6.18179 794.723Z" fill="#F6F5E9"/>
<path d="M0.634926 799.727C0.246539 798.124 0.46685 796.707 0.405526 795.361C0.0875478 788.283 -0.191816 781.186 0.326034 774.112C0.700794 768.985 0.868868 763.865 0.755305 758.718C0.741677 758.058 0.698524 757.402 0.653098 756.361C1.33902 757.265 1.23681 758.091 1.24817 758.835C1.32994 764.144 1.12779 769.437 0.875682 774.733C0.503193 782.522 0.675809 790.308 1.1505 798.082C1.18457 798.667 1.19139 798.667 0.634926 799.727Z" fill="#F6F5E9"/>
<path d="M11.5147 757.586C12.0734 771.939 12.1665 786.159 11.7009 800.499C11.0241 800.158 11.174 799.404 11.1876 798.757C11.2989 793.997 11.4715 789.241 11.5215 784.482C11.5896 777.937 11.3761 771.396 11.2239 764.855C11.1785 762.908 11.1899 760.961 11.199 759.013C11.2035 758.574 11.074 758.057 11.5147 757.586Z" fill="#F6F5E9"/>
</svg>
