<svg width="65" height="1080" viewBox="0 0 65 1080" fill="none" xmlns="http://www.w3.org/2000/svg">
<path d="M13.5554 1.44238C26.8421 1.44238 40.1893 1.44238 54.6145 1.44238C54.3359 53.9258 53.4881 105.354 54.3117 156.9C39.8865 155.235 26.4545 153.77 13.4706 155.083C9.04976 103.936 14.706 52.3432 13.5554 1.44238ZM15.0693 110.817C20.8467 111.52 26.6604 111.473 32.7526 111.098C32.7526 104.369 32.7526 98.2735 32.7526 91.5915C26.5877 91.9783 20.8346 91.6735 15.0693 93.7954C15.0693 99.1879 15.0693 104.405 15.0693 110.817ZM15.9535 50.3737C15.9535 55.8366 15.9535 61.0064 15.9535 66.6803C21.6461 66.4107 27.1812 66.1645 33.116 65.8832C32.8616 60.1389 33.661 54.7698 32.4619 49.2835C26.9995 48.2636 21.8883 49.2718 15.9535 50.3737ZM51.0778 45.6846C51.0778 39.448 51.0778 33.7038 51.0778 27.8424C45.8697 26.0839 40.9766 26.6583 35.4415 27.0335C35.8533 33.4342 36.253 39.5067 36.6648 45.8839C41.5822 45.7901 46.0756 46.9038 51.0778 45.6846ZM31.6868 23.5869C33.0554 16.7291 32.0865 10.6917 31.4688 4.50204C26.0548 4.31447 21.3312 3.658 16.4743 4.94752C17.4433 11.313 16.1473 17.5496 17.7703 23.5752C22.4697 23.5869 26.8299 23.5869 31.6868 23.5869ZM50.7266 88.5317C50.7266 82.2014 50.7266 76.293 50.7266 70.2909C45.9545 69.4234 41.6669 69.0249 37.2219 69.3648C37.2219 76.1524 37.2219 82.4241 37.2219 88.7662C41.8728 89.3289 46.0393 89.6689 50.7266 88.5317ZM50.0483 114.897C45.4822 114.709 41.243 113.525 37.234 114.779C37.234 121.661 37.234 128.167 37.234 134.673C41.7396 134.673 45.676 134.673 50.0483 134.673C50.0483 127.921 50.0483 121.626 50.0483 114.897ZM32.9828 138.331C27.2902 139.257 22.0579 138.635 16.7771 140.417C16.1957 143.958 16.1957 147.346 16.7044 150.874C21.6824 152.351 26.5514 152.703 31.6262 151.8C32.9101 147.533 33.3582 143.395 32.9828 138.331Z" fill="#F6F5E9"/>
<path d="M3.4055 156.372C1.33411 150.593 2.5091 145.481 2.18204 140.628C0.486168 115.107 -1.00377 89.5162 1.75809 64.0072C3.75679 45.5202 4.65318 27.0567 4.04752 8.49934C3.97484 6.11959 3.74469 3.75157 3.50242 0.000243998C7.16066 3.25921 6.61555 6.23681 6.67612 8.92135C7.1122 28.0648 6.03411 47.1497 4.68952 66.2463C2.70293 94.3344 3.62354 122.411 6.15524 150.44C6.33694 152.55 6.37328 152.55 3.4055 156.372Z" fill="#F6F5E9"/>
<path d="M61.4211 4.42041C64.401 56.177 64.8977 107.453 62.4144 159.163C58.8046 157.932 59.6041 155.212 59.6768 152.879C60.2704 135.717 61.191 118.566 61.4575 101.404C61.8209 77.8058 60.6822 54.2193 59.8706 30.6329C59.6284 23.6108 59.6889 16.5888 59.7374 9.56678C59.7616 7.98419 59.0711 6.12023 61.4211 4.42041Z" fill="#F6F5E9"/>
<path d="M13.5554 262.242C26.8421 262.242 40.1893 262.242 54.6145 262.242C54.3359 314.725 53.4881 366.154 54.3117 417.699C39.8865 416.035 26.4545 414.569 13.4706 415.882C9.04976 364.735 14.706 313.143 13.5554 262.242ZM15.0693 371.617C20.8467 372.32 26.6604 372.273 32.7526 371.898C32.7526 365.169 32.7526 359.073 32.7526 352.391C26.5877 352.778 20.8346 352.473 15.0693 354.595C15.0693 359.988 15.0693 365.204 15.0693 371.617ZM15.9535 311.173C15.9535 316.636 15.9535 321.806 15.9535 327.48C21.6461 327.21 27.1812 326.964 33.116 326.683C32.8616 320.939 33.661 315.57 32.4619 310.083C26.9995 309.063 21.8883 310.071 15.9535 311.173ZM51.0778 306.484C51.0778 300.248 51.0778 294.503 51.0778 288.642C45.8697 286.884 40.9766 287.458 35.4415 287.833C35.8533 294.234 36.253 300.306 36.6648 306.684C41.5822 306.59 46.0756 307.703 51.0778 306.484ZM31.6868 284.387C33.0554 277.529 32.0865 271.491 31.4688 265.302C26.0548 265.114 21.3312 264.458 16.4743 265.747C17.4433 272.113 16.1473 278.349 17.7703 284.375C22.4697 284.387 26.8299 284.387 31.6868 284.387ZM50.7266 349.331C50.7266 343.001 50.7266 337.093 50.7266 331.091C45.9545 330.223 41.6669 329.825 37.2219 330.165C37.2219 336.952 37.2219 343.224 37.2219 349.566C41.8728 350.129 46.0393 350.469 50.7266 349.331ZM50.0483 375.696C45.4822 375.509 41.243 374.325 37.234 375.579C37.234 382.46 37.234 388.967 37.234 395.473C41.7396 395.473 45.676 395.473 50.0483 395.473C50.0483 388.72 50.0483 382.425 50.0483 375.696ZM32.9828 399.13C27.2902 400.056 22.0579 399.435 16.7771 401.217C16.1957 404.757 16.1957 408.145 16.7044 411.674C21.6824 413.151 26.5514 413.503 31.6262 412.6C32.9101 408.333 33.3582 404.195 32.9828 399.13Z" fill="#F6F5E9"/>
<path d="M3.4055 417.172C1.33411 411.392 2.5091 406.281 2.18204 401.428C0.486167 375.907 -1.00377 350.316 1.75809 324.807C3.75679 306.32 4.65318 287.856 4.04752 269.299C3.97484 266.919 3.74469 264.551 3.50242 260.8C7.16066 264.059 6.61555 267.036 6.67612 269.721C7.1122 288.865 6.03411 307.949 4.68952 327.046C2.70293 355.134 3.62354 383.21 6.15524 411.24C6.33694 413.35 6.37328 413.35 3.4055 417.172Z" fill="#F6F5E9"/>
<path d="M61.4211 265.22C64.401 316.977 64.8977 368.252 62.4144 419.962C58.8046 418.731 59.6041 416.012 59.6768 413.679C60.2704 396.516 61.191 379.366 61.4575 362.204C61.8209 338.605 60.6822 315.019 59.8706 291.432C59.6284 284.41 59.6889 277.388 59.7374 270.366C59.7616 268.784 59.0711 266.92 61.4211 265.22Z" fill="#F6F5E9"/>
<path d="M13.5554 131.63C26.8421 131.63 40.1893 131.63 54.6145 131.63C54.3359 184.113 53.4881 235.542 54.3117 287.087C39.8865 285.423 26.4545 283.957 13.4706 285.27C9.04976 234.123 14.706 182.531 13.5554 131.63ZM15.0693 241.004C20.8467 241.708 26.6604 241.661 32.7526 241.286C32.7526 234.557 32.7526 228.461 32.7526 221.779C26.5877 222.166 20.8346 221.861 15.0693 223.983C15.0693 229.375 15.0693 234.592 15.0693 241.004ZM15.9535 180.561C15.9535 186.024 15.9535 191.194 15.9535 196.868C21.6461 196.598 27.1812 196.352 33.116 196.071C32.8616 190.326 33.661 184.957 32.4619 179.471C26.9995 178.451 21.8883 179.459 15.9535 180.561ZM51.0778 175.872C51.0778 169.635 51.0778 163.891 51.0778 158.03C45.8697 156.271 40.9766 156.846 35.4415 157.221C35.8533 163.622 36.253 169.694 36.6648 176.071C41.5822 175.978 46.0756 177.091 51.0778 175.872ZM31.6868 153.774C33.0554 146.917 32.0865 140.879 31.4688 134.69C26.0548 134.502 21.3312 133.845 16.4743 135.135C17.4433 141.501 16.1473 147.737 17.7703 153.763C22.4697 153.774 26.8299 153.774 31.6868 153.774ZM50.7266 218.719C50.7266 212.389 50.7266 206.481 50.7266 200.478C45.9545 199.611 41.6669 199.212 37.2219 199.552C37.2219 206.34 37.2219 212.612 37.2219 218.954C41.8728 219.516 46.0393 219.856 50.7266 218.719ZM50.0483 245.084C45.4822 244.897 41.243 243.712 37.234 244.967C37.234 251.848 37.234 258.354 37.234 264.861C41.7396 264.861 45.676 264.861 50.0483 264.861C50.0483 258.108 50.0483 251.813 50.0483 245.084ZM32.9828 268.518C27.2902 269.444 22.0579 268.823 16.7771 270.605C16.1957 274.145 16.1957 277.533 16.7044 281.062C21.6824 282.539 26.5514 282.89 31.6262 281.988C32.9101 277.721 33.3582 273.582 32.9828 268.518Z" fill="#F6F5E9"/>
<path d="M3.40503 144.385C1.33364 150.165 2.50862 155.276 2.18156 160.129C0.48569 185.65 -1.00425 211.241 1.7576 236.75C3.75631 255.237 4.6527 273.7 4.04703 292.258C3.97435 294.637 3.7442 297.006 3.50193 300.757C7.16017 297.498 6.61506 294.52 6.67563 291.836C7.11171 272.692 6.03362 253.607 4.68904 234.511C2.70245 206.423 3.62306 178.346 6.15476 150.317C6.33646 148.207 6.37281 148.207 3.40503 144.385Z" fill="#F6F5E9"/>
<path d="M61.4211 139.781C64.401 191.538 64.8977 242.814 62.4144 294.523C58.8046 293.292 59.6041 290.573 59.6768 288.24C60.2704 271.077 61.191 253.927 61.4575 236.765C61.8209 213.166 60.6822 189.58 59.8706 165.993C59.6284 158.971 59.6889 151.949 59.7374 144.927C59.7616 143.345 59.0711 141.481 61.4211 139.781Z" fill="#F6F5E9"/>
<path d="M13.5554 392.429C26.8421 392.429 40.1893 392.429 54.6145 392.429C54.3359 444.912 53.4881 496.341 54.3117 547.886C39.8865 546.222 26.4545 544.756 13.4706 546.069C9.04976 494.922 14.706 443.33 13.5554 392.429ZM15.0693 501.804C20.8467 502.507 26.6604 502.46 32.7526 502.085C32.7526 495.356 32.7526 489.26 32.7526 482.578C26.5877 482.965 20.8346 482.66 15.0693 484.782C15.0693 490.175 15.0693 495.391 15.0693 501.804ZM15.9535 441.36C15.9535 446.823 15.9535 451.993 15.9535 457.667C21.6461 457.397 27.1812 457.151 33.116 456.87C32.8616 451.126 33.661 445.757 32.4619 440.27C26.9995 439.25 21.8883 440.258 15.9535 441.36ZM51.0778 436.671C51.0778 430.435 51.0778 424.691 51.0778 418.829C45.8697 417.071 40.9766 417.645 35.4415 418.02C35.8533 424.421 36.253 430.493 36.6648 436.871C41.5822 436.777 46.0756 437.89 51.0778 436.671ZM31.6868 414.574C33.0554 407.716 32.0865 401.678 31.4688 395.489C26.0548 395.301 21.3312 394.645 16.4743 395.934C17.4433 402.3 16.1473 408.536 17.7703 414.562C22.4697 414.574 26.8299 414.574 31.6868 414.574ZM50.7266 479.518C50.7266 473.188 50.7266 467.28 50.7266 461.278C45.9545 460.41 41.6669 460.012 37.2219 460.352C37.2219 467.139 37.2219 473.411 37.2219 479.753C41.8728 480.316 46.0393 480.656 50.7266 479.518ZM50.0483 505.883C45.4822 505.696 41.243 504.512 37.234 505.766C37.234 512.647 37.234 519.154 37.234 525.66C41.7396 525.66 45.676 525.66 50.0483 525.66C50.0483 518.907 50.0483 512.612 50.0483 505.883ZM32.9828 529.317C27.2902 530.243 22.0579 529.622 16.7771 531.404C16.1957 534.944 16.1957 538.332 16.7044 541.861C21.6824 543.338 26.5514 543.69 31.6262 542.787C32.9101 538.52 33.3582 534.382 32.9828 529.317Z" fill="#F6F5E9"/>
<path d="M3.40503 405.184C1.33364 410.964 2.50862 416.075 2.18156 420.928C0.48569 446.449 -1.00425 472.04 1.7576 497.549C3.75631 516.036 4.6527 534.5 4.04703 553.057C3.97435 555.437 3.7442 557.805 3.50193 561.556C7.16017 558.297 6.61506 555.319 6.67563 552.635C7.11171 533.491 6.03362 514.407 4.68904 495.31C2.70245 467.222 3.62306 439.146 6.15476 411.116C6.33646 409.006 6.37281 409.006 3.40503 405.184Z" fill="#F6F5E9"/>
<path d="M61.4211 400.58C64.401 452.337 64.8977 503.613 62.4144 555.322C58.8046 554.091 59.6041 551.372 59.6768 549.039C60.2704 531.877 61.191 514.726 61.4575 497.564C61.8209 473.965 60.6822 450.379 59.8706 426.793C59.6284 419.771 59.6889 412.748 59.7374 405.726C59.7616 404.144 59.0711 402.28 61.4211 400.58Z" fill="#F6F5E9"/>
<path d="M13.5554 1.44238C26.8421 1.44238 40.1893 1.44238 54.6145 1.44238C54.3359 53.9258 53.4881 105.354 54.3117 156.9C39.8865 155.235 26.4545 153.77 13.4706 155.083C9.04976 103.936 14.706 52.3432 13.5554 1.44238ZM15.0693 110.817C20.8467 111.52 26.6604 111.473 32.7526 111.098C32.7526 104.369 32.7526 98.2735 32.7526 91.5915C26.5877 91.9783 20.8346 91.6735 15.0693 93.7954C15.0693 99.1879 15.0693 104.405 15.0693 110.817ZM15.9535 50.3737C15.9535 55.8366 15.9535 61.0064 15.9535 66.6803C21.6461 66.4107 27.1812 66.1645 33.116 65.8832C32.8616 60.1389 33.661 54.7698 32.4619 49.2835C26.9995 48.2636 21.8883 49.2718 15.9535 50.3737ZM51.0778 45.6846C51.0778 39.448 51.0778 33.7038 51.0778 27.8424C45.8697 26.0839 40.9766 26.6583 35.4415 27.0335C35.8533 33.4342 36.253 39.5067 36.6648 45.8839C41.5822 45.7901 46.0756 46.9038 51.0778 45.6846ZM31.6868 23.5869C33.0554 16.7291 32.0865 10.6917 31.4688 4.50204C26.0548 4.31447 21.3312 3.658 16.4743 4.94752C17.4433 11.313 16.1473 17.5496 17.7703 23.5752C22.4697 23.5869 26.8299 23.5869 31.6868 23.5869ZM50.7266 88.5317C50.7266 82.2014 50.7266 76.293 50.7266 70.2909C45.9545 69.4234 41.6669 69.0249 37.2219 69.3648C37.2219 76.1524 37.2219 82.4241 37.2219 88.7662C41.8728 89.3289 46.0393 89.6689 50.7266 88.5317ZM50.0483 114.897C45.4822 114.709 41.243 113.525 37.234 114.779C37.234 121.661 37.234 128.167 37.234 134.673C41.7396 134.673 45.676 134.673 50.0483 134.673C50.0483 127.921 50.0483 121.626 50.0483 114.897ZM32.9828 138.331C27.2902 139.257 22.0579 138.635 16.7771 140.417C16.1957 143.958 16.1957 147.346 16.7044 150.874C21.6824 152.351 26.5514 152.703 31.6262 151.8C32.9101 147.533 33.3582 143.395 32.9828 138.331Z" fill="#F6F5E9"/>
<path d="M3.4055 156.372C1.33411 150.593 2.5091 145.481 2.18204 140.628C0.486168 115.107 -1.00377 89.5162 1.75809 64.0072C3.75679 45.5202 4.65318 27.0567 4.04752 8.49934C3.97484 6.11959 3.74469 3.75157 3.50242 0.000243998C7.16066 3.25921 6.61555 6.23681 6.67612 8.92135C7.1122 28.0648 6.03411 47.1497 4.68952 66.2463C2.70293 94.3344 3.62354 122.411 6.15524 150.44C6.33694 152.55 6.37328 152.55 3.4055 156.372Z" fill="#F6F5E9"/>
<path d="M61.4211 4.42041C64.401 56.177 64.8977 107.453 62.4144 159.163C58.8046 157.932 59.6041 155.212 59.6768 152.879C60.2704 135.717 61.191 118.566 61.4575 101.404C61.8209 77.8058 60.6822 54.2193 59.8706 30.6329C59.6284 23.6108 59.6889 16.5888 59.7374 9.56678C59.7616 7.98419 59.0711 6.12023 61.4211 4.42041Z" fill="#F6F5E9"/>
<path d="M13.5554 262.242C26.8421 262.242 40.1893 262.242 54.6145 262.242C54.3359 314.725 53.4881 366.153 54.3117 417.699C39.8865 416.034 26.4545 414.569 13.4706 415.882C9.04976 364.735 14.706 313.143 13.5554 262.242ZM15.0693 371.616C20.8467 372.32 26.6604 372.273 32.7526 371.898C32.7526 365.169 32.7526 359.073 32.7526 352.391C26.5877 352.778 20.8346 352.473 15.0693 354.595C15.0693 359.987 15.0693 365.204 15.0693 371.616ZM15.9535 311.173C15.9535 316.636 15.9535 321.806 15.9535 327.48C21.6461 327.21 27.1812 326.964 33.116 326.682C32.8616 320.938 33.661 315.569 32.4619 310.083C26.9995 309.063 21.8883 310.071 15.9535 311.173ZM51.0778 306.484C51.0778 300.247 51.0778 294.503 51.0778 288.642C45.8697 286.883 40.9766 287.458 35.4415 287.833C35.8533 294.233 36.253 300.306 36.6648 306.683C41.5822 306.589 46.0756 307.703 51.0778 306.484ZM31.6868 284.386C33.0554 277.528 32.0865 271.491 31.4688 265.301C26.0548 265.114 21.3312 264.457 16.4743 265.747C17.4433 272.112 16.1473 278.349 17.7703 284.375C22.4697 284.386 26.8299 284.386 31.6868 284.386ZM50.7266 349.331C50.7266 343.001 50.7266 337.092 50.7266 331.09C45.9545 330.223 41.6669 329.824 37.2219 330.164C37.2219 336.952 37.2219 343.223 37.2219 349.566C41.8728 350.128 46.0393 350.468 50.7266 349.331ZM50.0483 375.696C45.4822 375.508 41.243 374.324 37.234 375.579C37.234 382.46 37.234 388.966 37.234 395.472C41.7396 395.472 45.676 395.472 50.0483 395.472C50.0483 388.72 50.0483 382.425 50.0483 375.696ZM32.9828 399.13C27.2902 400.056 22.0579 399.435 16.7771 401.217C16.1957 404.757 16.1957 408.145 16.7044 411.673C21.6824 413.151 26.5514 413.502 31.6262 412.6C32.9101 408.332 33.3582 404.194 32.9828 399.13Z" fill="#F6F5E9"/>
<path d="M3.4055 417.171C1.33411 411.392 2.5091 406.281 2.18204 401.427C0.486167 375.907 -1.00377 350.316 1.75809 324.807C3.75679 306.32 4.65318 287.856 4.04752 269.299C3.97484 266.919 3.74469 264.551 3.50242 260.8C7.16066 264.059 6.61555 267.036 6.67612 269.721C7.1122 288.864 6.03411 307.949 4.68952 327.046C2.70293 355.134 3.62354 383.21 6.15524 411.239C6.33694 413.35 6.37328 413.35 3.4055 417.171Z" fill="#F6F5E9"/>
<path d="M61.4211 265.22C64.401 316.976 64.8977 368.252 62.4144 419.962C58.8046 418.731 59.6041 416.011 59.6768 413.678C60.2704 396.516 61.191 379.365 61.4575 362.203C61.8209 338.605 60.6822 315.019 59.8706 291.432C59.6284 284.41 59.6889 277.388 59.7374 270.366C59.7616 268.783 59.0711 266.919 61.4211 265.22Z" fill="#F6F5E9"/>
<path d="M13.5554 131.63C26.8421 131.63 40.1893 131.63 54.6145 131.63C54.3359 184.113 53.4881 235.542 54.3117 287.087C39.8865 285.423 26.4545 283.957 13.4706 285.27C9.04976 234.123 14.706 182.531 13.5554 131.63ZM15.0693 241.004C20.8467 241.708 26.6604 241.661 32.7526 241.286C32.7526 234.557 32.7526 228.461 32.7526 221.779C26.5877 222.166 20.8346 221.861 15.0693 223.983C15.0693 229.375 15.0693 234.592 15.0693 241.004ZM15.9535 180.561C15.9535 186.024 15.9535 191.194 15.9535 196.868C21.6461 196.598 27.1812 196.352 33.116 196.071C32.8616 190.326 33.661 184.957 32.4619 179.471C26.9995 178.451 21.8883 179.459 15.9535 180.561ZM51.0778 175.872C51.0778 169.635 51.0778 163.891 51.0778 158.03C45.8697 156.271 40.9766 156.846 35.4415 157.221C35.8533 163.622 36.253 169.694 36.6648 176.071C41.5822 175.978 46.0756 177.091 51.0778 175.872ZM31.6868 153.774C33.0554 146.917 32.0865 140.879 31.4688 134.69C26.0548 134.502 21.3312 133.845 16.4743 135.135C17.4433 141.501 16.1473 147.737 17.7703 153.763C22.4697 153.774 26.8299 153.774 31.6868 153.774ZM50.7266 218.719C50.7266 212.389 50.7266 206.481 50.7266 200.478C45.9545 199.611 41.6669 199.212 37.2219 199.552C37.2219 206.34 37.2219 212.612 37.2219 218.954C41.8728 219.516 46.0393 219.856 50.7266 218.719ZM50.0483 245.084C45.4822 244.897 41.243 243.712 37.234 244.967C37.234 251.848 37.234 258.354 37.234 264.861C41.7396 264.861 45.676 264.861 50.0483 264.861C50.0483 258.108 50.0483 251.813 50.0483 245.084ZM32.9828 268.518C27.2902 269.444 22.0579 268.823 16.7771 270.605C16.1957 274.145 16.1957 277.533 16.7044 281.062C21.6824 282.539 26.5514 282.89 31.6262 281.988C32.9101 277.721 33.3582 273.582 32.9828 268.518Z" fill="#F6F5E9"/>
<path d="M3.40503 144.385C1.33364 150.165 2.50862 155.276 2.18156 160.129C0.48569 185.65 -1.00425 211.241 1.7576 236.75C3.75631 255.237 4.6527 273.7 4.04703 292.258C3.97435 294.637 3.7442 297.006 3.50193 300.757C7.16017 297.498 6.61506 294.52 6.67563 291.836C7.11171 272.692 6.03362 253.607 4.68904 234.511C2.70245 206.423 3.62306 178.346 6.15476 150.317C6.33646 148.207 6.37281 148.207 3.40503 144.385Z" fill="#F6F5E9"/>
<path d="M61.4211 139.781C64.401 191.538 64.8977 242.814 62.4144 294.523C58.8046 293.292 59.6041 290.573 59.6768 288.24C60.2704 271.077 61.191 253.927 61.4575 236.765C61.8209 213.166 60.6822 189.58 59.8706 165.993C59.6284 158.971 59.6889 151.949 59.7374 144.927C59.7616 143.345 59.0711 141.481 61.4211 139.781Z" fill="#F6F5E9"/>
<path d="M13.5554 392.429C26.8421 392.429 40.1893 392.429 54.6145 392.429C54.3359 444.912 53.4881 496.341 54.3117 547.886C39.8865 546.222 26.4545 544.756 13.4706 546.069C9.04976 494.922 14.706 443.33 13.5554 392.429ZM15.0693 501.804C20.8467 502.507 26.6604 502.46 32.7526 502.085C32.7526 495.356 32.7526 489.26 32.7526 482.578C26.5877 482.965 20.8346 482.66 15.0693 484.782C15.0693 490.174 15.0693 495.391 15.0693 501.804ZM15.9535 441.36C15.9535 446.823 15.9535 451.993 15.9535 457.667C21.6461 457.397 27.1812 457.151 33.116 456.87C32.8616 451.126 33.661 445.756 32.4619 440.27C26.9995 439.25 21.8883 440.258 15.9535 441.36ZM51.0778 436.671C51.0778 430.435 51.0778 424.69 51.0778 418.829C45.8697 417.071 40.9766 417.645 35.4415 418.02C35.8533 424.421 36.253 430.493 36.6648 436.87C41.5822 436.777 46.0756 437.89 51.0778 436.671ZM31.6868 414.574C33.0554 407.716 32.0865 401.678 31.4688 395.489C26.0548 395.301 21.3312 394.645 16.4743 395.934C17.4433 402.3 16.1473 408.536 17.7703 414.562C22.4697 414.574 26.8299 414.574 31.6868 414.574ZM50.7266 479.518C50.7266 473.188 50.7266 467.28 50.7266 461.277C45.9545 460.41 41.6669 460.011 37.2219 460.351C37.2219 467.139 37.2219 473.411 37.2219 479.753C41.8728 480.315 46.0393 480.655 50.7266 479.518ZM50.0483 505.883C45.4822 505.696 41.243 504.512 37.234 505.766C37.234 512.647 37.234 519.153 37.234 525.66C41.7396 525.66 45.676 525.66 50.0483 525.66C50.0483 518.907 50.0483 512.612 50.0483 505.883ZM32.9828 529.317C27.2902 530.243 22.0579 529.622 16.7771 531.404C16.1957 534.944 16.1957 538.332 16.7044 541.861C21.6824 543.338 26.5514 543.689 31.6262 542.787C32.9101 538.52 33.3582 534.381 32.9828 529.317Z" fill="#F6F5E9"/>
<path d="M3.40503 405.184C1.33364 410.964 2.50862 416.075 2.18156 420.928C0.48569 446.449 -1.00425 472.04 1.7576 497.549C3.75631 516.036 4.6527 534.499 4.04703 553.057C3.97435 555.437 3.7442 557.805 3.50193 561.556C7.16017 558.297 6.61506 555.319 6.67563 552.635C7.11171 533.491 6.03362 514.406 4.68904 495.31C2.70245 467.222 3.62306 439.146 6.15476 411.116C6.33646 409.006 6.37281 409.006 3.40503 405.184Z" fill="#F6F5E9"/>
<path d="M61.4211 400.58C64.401 452.337 64.8977 503.612 62.4144 555.322C58.8046 554.091 59.6041 551.372 59.6768 549.039C60.2704 531.876 61.191 514.726 61.4575 497.564C61.8209 473.965 60.6822 450.379 59.8706 426.792C59.6284 419.77 59.6889 412.748 59.7374 405.726C59.7616 404.144 59.0711 402.28 61.4211 400.58Z" fill="#F6F5E9"/>
<path d="M13.5554 519.886C26.8421 519.886 40.1893 519.886 54.6145 519.886C54.3359 572.369 53.4881 623.797 54.3117 675.343C39.8865 673.678 26.4545 672.213 13.4706 673.526C9.04976 622.379 14.706 570.787 13.5554 519.886ZM15.0693 629.26C20.8467 629.964 26.6604 629.917 32.7526 629.542C32.7526 622.813 32.7526 616.717 32.7526 610.035C26.5877 610.422 20.8346 610.117 15.0693 612.239C15.0693 617.631 15.0693 622.848 15.0693 629.26ZM15.9535 568.817C15.9535 574.28 15.9535 579.45 15.9535 585.124C21.6461 584.854 27.1812 584.608 33.116 584.327C32.8616 578.582 33.661 573.213 32.4619 567.727C26.9995 566.707 21.8883 567.715 15.9535 568.817ZM51.0778 564.128C51.0778 557.891 51.0778 552.147 51.0778 546.286C45.8697 544.527 40.9766 545.102 35.4415 545.477C35.8533 551.878 36.253 557.95 36.6648 564.327C41.5822 564.233 46.0756 565.347 51.0778 564.128ZM31.6868 542.03C33.0554 535.172 32.0865 529.135 31.4688 522.945C26.0548 522.758 21.3312 522.101 16.4743 523.391C17.4433 529.756 16.1473 535.993 17.7703 542.019C22.4697 542.03 26.8299 542.03 31.6868 542.03ZM50.7266 606.975C50.7266 600.645 50.7266 594.736 50.7266 588.734C45.9545 587.867 41.6669 587.468 37.2219 587.808C37.2219 594.596 37.2219 600.867 37.2219 607.21C41.8728 607.772 46.0393 608.112 50.7266 606.975ZM50.0483 633.34C45.4822 633.152 41.243 631.968 37.234 633.223C37.234 640.104 37.234 646.61 37.234 653.116C41.7396 653.116 45.676 653.116 50.0483 653.116C50.0483 646.364 50.0483 640.069 50.0483 633.34ZM32.9828 656.774C27.2902 657.7 22.0579 657.079 16.7771 658.861C16.1957 662.401 16.1957 665.789 16.7044 669.318C21.6824 670.795 26.5514 671.146 31.6262 670.244C32.9101 665.976 33.3582 661.838 32.9828 656.774Z" fill="#F6F5E9"/>
<path d="M3.4055 674.815C1.33411 669.036 2.5091 663.925 2.18204 659.071C0.486167 633.551 -1.00377 607.96 1.75809 582.451C3.75679 563.964 4.65318 545.5 4.04752 526.943C3.97484 524.563 3.74469 522.195 3.50242 518.444C7.16066 521.703 6.61555 524.68 6.67612 527.365C7.1122 546.508 6.03411 565.593 4.68952 584.69C2.70293 612.778 3.62354 640.854 6.15524 668.883C6.33694 670.994 6.37328 670.994 3.4055 674.815Z" fill="#F6F5E9"/>
<path d="M61.4211 522.864C64.401 574.62 64.8977 625.896 62.4144 677.606C58.8046 676.375 59.6041 673.655 59.6768 671.322C60.2704 654.16 61.191 637.01 61.4575 619.847C61.8209 596.249 60.6822 572.663 59.8706 549.076C59.6284 542.054 59.6889 535.032 59.7374 528.01C59.7616 526.427 59.0711 524.563 61.4211 522.864Z" fill="#F6F5E9"/>
<path d="M13.5554 780.686C26.8421 780.686 40.1893 780.686 54.6145 780.686C54.3359 833.169 53.4881 884.597 54.3117 936.143C39.8865 934.478 26.4545 933.013 13.4706 934.326C9.04976 883.179 14.706 831.586 13.5554 780.686ZM15.0693 890.06C20.8467 890.764 26.6604 890.717 32.7526 890.341C32.7526 883.613 32.7526 877.517 32.7526 870.835C26.5877 871.221 20.8346 870.917 15.0693 873.039C15.0693 878.431 15.0693 883.648 15.0693 890.06ZM15.9535 829.617C15.9535 835.08 15.9535 840.25 15.9535 845.923C21.6461 845.654 27.1812 845.408 33.116 845.126C32.8616 839.382 33.661 834.013 32.4619 828.527C26.9995 827.507 21.8883 828.515 15.9535 829.617ZM51.0778 824.928C51.0778 818.691 51.0778 812.947 51.0778 807.086C45.8697 805.327 40.9766 805.902 35.4415 806.277C35.8533 812.677 36.253 818.75 36.6648 825.127C41.5822 825.033 46.0756 826.147 51.0778 824.928ZM31.6868 802.83C33.0554 795.972 32.0865 789.935 31.4688 783.745C26.0548 783.558 21.3312 782.901 16.4743 784.191C17.4433 790.556 16.1473 796.793 17.7703 802.818C22.4697 802.83 26.8299 802.83 31.6868 802.83ZM50.7266 867.775C50.7266 861.445 50.7266 855.536 50.7266 849.534C45.9545 848.667 41.6669 848.268 37.2219 848.608C37.2219 855.396 37.2219 861.667 37.2219 868.009C41.8728 868.572 46.0393 868.912 50.7266 867.775ZM50.0483 894.14C45.4822 893.952 41.243 892.768 37.234 894.022C37.234 900.904 37.234 907.41 37.234 913.916C41.7396 913.916 45.676 913.916 50.0483 913.916C50.0483 907.164 50.0483 900.869 50.0483 894.14ZM32.9828 917.574C27.2902 918.5 22.0579 917.879 16.7771 919.66C16.1957 923.201 16.1957 926.589 16.7044 930.117C21.6824 931.594 26.5514 931.946 31.6262 931.043C32.9101 926.776 33.3582 922.638 32.9828 917.574Z" fill="#F6F5E9"/>
<path d="M3.4055 935.615C1.33411 929.835 2.5091 924.724 2.18204 919.871C0.486167 894.35 -1.00377 868.759 1.75809 843.25C3.75679 824.763 4.65318 806.3 4.04752 787.742C3.97484 785.363 3.74469 782.994 3.50242 779.243C7.16066 782.502 6.61555 785.48 6.67612 788.164C7.1122 807.308 6.03411 826.393 4.68952 845.489C2.70293 873.577 3.62354 901.654 6.15524 929.683C6.33694 931.793 6.37328 931.793 3.4055 935.615Z" fill="#F6F5E9"/>
<path d="M61.4211 783.663C64.401 835.42 64.8977 886.696 62.4144 938.405C58.8046 937.174 59.6041 934.455 59.6768 932.122C60.2704 914.96 61.191 897.809 61.4575 880.647C61.8209 857.048 60.6822 833.462 59.8706 809.876C59.6284 802.854 59.6889 795.831 59.7374 788.809C59.7616 787.227 59.0711 785.363 61.4211 783.663Z" fill="#F6F5E9"/>
<path d="M13.5554 650.073C26.8421 650.073 40.1893 650.073 54.6145 650.073C54.3359 702.556 53.4881 753.985 54.3117 805.53C39.8865 803.866 26.4545 802.4 13.4706 803.713C9.04976 752.566 14.706 700.974 13.5554 650.073ZM15.0693 759.448C20.8467 760.151 26.6604 760.104 32.7526 759.729C32.7526 753 32.7526 746.904 32.7526 740.222C26.5877 740.609 20.8346 740.304 15.0693 742.426C15.0693 747.819 15.0693 753.035 15.0693 759.448ZM15.9535 699.004C15.9535 704.467 15.9535 709.637 15.9535 715.311C21.6461 715.041 27.1812 714.795 33.116 714.514C32.8616 708.77 33.661 703.4 32.4619 697.914C26.9995 696.894 21.8883 697.902 15.9535 699.004ZM51.0778 694.315C51.0778 688.079 51.0778 682.334 51.0778 676.473C45.8697 674.715 40.9766 675.289 35.4415 675.664C35.8533 682.065 36.253 688.137 36.6648 694.515C41.5822 694.421 46.0756 695.534 51.0778 694.315ZM31.6868 672.218C33.0554 665.36 32.0865 659.322 31.4688 653.133C26.0548 652.945 21.3312 652.289 16.4743 653.578C17.4433 659.944 16.1473 666.18 17.7703 672.206C22.4697 672.218 26.8299 672.218 31.6868 672.218ZM50.7266 737.162C50.7266 730.832 50.7266 724.924 50.7266 718.922C45.9545 718.054 41.6669 717.655 37.2219 717.995C37.2219 724.783 37.2219 731.055 37.2219 737.397C41.8728 737.96 46.0393 738.299 50.7266 737.162ZM50.0483 763.527C45.4822 763.34 41.243 762.156 37.234 763.41C37.234 770.291 37.234 776.798 37.234 783.304C41.7396 783.304 45.676 783.304 50.0483 783.304C50.0483 776.551 50.0483 770.256 50.0483 763.527ZM32.9828 786.961C27.2902 787.887 22.0579 787.266 16.7771 789.048C16.1957 792.588 16.1957 795.976 16.7044 799.505C21.6824 800.982 26.5514 801.334 31.6262 800.431C32.9101 796.164 33.3582 792.026 32.9828 786.961Z" fill="#F6F5E9"/>
<path d="M3.40503 662.829C1.33364 668.608 2.50862 673.719 2.18156 678.573C0.48569 704.093 -1.00425 729.684 1.7576 755.193C3.75631 773.68 4.6527 792.144 4.04703 810.701C3.97435 813.081 3.7442 815.449 3.50193 819.2C7.16017 815.941 6.61506 812.964 6.67563 810.279C7.11171 791.136 6.03362 772.051 4.68904 752.954C2.70245 724.866 3.62306 696.79 6.15476 668.761C6.33646 666.65 6.37281 666.65 3.40503 662.829Z" fill="#F6F5E9"/>
<path d="M61.4211 658.224C64.401 709.981 64.8977 761.257 62.4144 812.966C58.8046 811.735 59.6041 809.016 59.6768 806.683C60.2704 789.52 61.191 772.37 61.4575 755.208C61.8209 731.609 60.6822 708.023 59.8706 684.436C59.6284 677.414 59.6889 670.392 59.7374 663.37C59.7616 661.788 59.0711 659.924 61.4211 658.224Z" fill="#F6F5E9"/>
<path d="M13.5554 910.873C26.8421 910.873 40.1893 910.873 54.6145 910.873C54.3359 963.357 53.4881 1014.79 54.3117 1066.33C39.8865 1064.67 26.4545 1063.2 13.4706 1064.51C9.04976 1013.37 14.706 961.774 13.5554 910.873ZM15.0693 1020.25C20.8467 1020.95 26.6604 1020.9 32.7526 1020.53C32.7526 1013.8 32.7526 1007.7 32.7526 1001.02C26.5877 1001.41 20.8346 1001.1 15.0693 1003.23C15.0693 1008.62 15.0693 1013.84 15.0693 1020.25ZM15.9535 959.805C15.9535 965.268 15.9535 970.437 15.9535 976.111C21.6461 975.842 27.1812 975.595 33.116 975.314C32.8616 969.57 33.661 964.201 32.4619 958.714C26.9995 957.695 21.8883 958.703 15.9535 959.805ZM51.0778 955.115C51.0778 948.879 51.0778 943.135 51.0778 937.273C45.8697 935.515 40.9766 936.089 35.4415 936.464C35.8533 942.865 36.253 948.938 36.6648 955.315C41.5822 955.221 46.0756 956.335 51.0778 955.115ZM31.6868 933.018C33.0554 926.16 32.0865 920.123 31.4688 913.933C26.0548 913.745 21.3312 913.089 16.4743 914.378C17.4433 920.744 16.1473 926.981 17.7703 933.006C22.4697 933.018 26.8299 933.018 31.6868 933.018ZM50.7266 997.963C50.7266 991.632 50.7266 985.724 50.7266 979.722C45.9545 978.854 41.6669 978.456 37.2219 978.796C37.2219 985.583 37.2219 991.855 37.2219 998.197C41.8728 998.76 46.0393 999.1 50.7266 997.963ZM50.0483 1024.33C45.4822 1024.14 41.243 1022.96 37.234 1024.21C37.234 1031.09 37.234 1037.6 37.234 1044.1C41.7396 1044.1 45.676 1044.1 50.0483 1044.1C50.0483 1037.35 50.0483 1031.06 50.0483 1024.33ZM32.9828 1047.76C27.2902 1048.69 22.0579 1048.07 16.7771 1049.85C16.1957 1053.39 16.1957 1056.78 16.7044 1060.31C21.6824 1061.78 26.5514 1062.13 31.6262 1061.23C32.9101 1056.96 33.3582 1052.83 32.9828 1047.76Z" fill="#F6F5E9"/>
<path d="M3.40503 923.629C1.33364 929.408 2.50862 934.519 2.18156 939.372C0.48569 964.893 -1.00425 990.484 1.7576 1015.99C3.75631 1034.48 4.6527 1052.94 4.04703 1071.5C3.97435 1073.88 3.7442 1076.25 3.50193 1080C7.16017 1076.74 6.61506 1073.76 6.67563 1071.08C7.11171 1051.94 6.03362 1032.85 4.68904 1013.75C2.70245 985.666 3.62306 957.59 6.15476 929.56C6.33646 927.45 6.37281 927.45 3.40503 923.629Z" fill="#F6F5E9"/>
<path d="M61.4211 919.024C64.401 970.781 64.8977 1022.06 62.4144 1073.77C58.8046 1072.54 59.6041 1069.82 59.6768 1067.48C60.2704 1050.32 61.191 1033.17 61.4575 1016.01C61.8209 992.41 60.6822 968.823 59.8706 945.237C59.6284 938.215 59.6889 931.193 59.7374 924.171C59.7616 922.588 59.0711 920.724 61.4211 919.024Z" fill="#F6F5E9"/>
</svg>
